<?xml version="1.0" standalone="no"?>
<!DOCTYPE svg PUBLIC "-//W3C//DTD SVG 20010904//EN"
 "http://www.w3.org/TR/2001/REC-SVG-20010904/DTD/svg10.dtd">
<svg version="1.0" xmlns="http://www.w3.org/2000/svg"
 width="5381.000000pt" height="3520.000000pt" viewBox="0 0 5381.000000 3520.000000"
 preserveAspectRatio="xMidYMid meet">
<metadata>
Created by potrace 1.15, written by Peter Selinger 2001-2017
</metadata>
<g transform="translate(0.000000,3520.000000) scale(0.100000,-0.100000)"
fill="#000000" stroke="none">
<path d="M3366 34393 c-3 -445 -8 -842 -11 -883 -2 -41 -7 -329 -10 -640 -3
-311 -12 -934 -20 -1385 -47 -2689 -44 -2472 -51 -3360 -3 -423 -7 -829 -9
-902 -2 -73 -7 -678 -10 -1345 -4 -667 -10 -1386 -15 -1598 -4 -212 -4 -389 1
-394 5 -5 18 -2 32 7 43 28 535 295 832 452 61 32 115 61 120 65 6 4 64 35
130 70 66 35 139 76 163 91 24 16 48 29 53 29 6 0 31 12 57 26 72 40 395 215
502 271 255 135 323 174 335 193 3 6 10 8 14 6 4 -3 36 10 72 28 97 50 276
144 349 185 36 20 78 43 94 51 16 8 35 29 42 45 20 48 52 71 159 114 113 46
125 48 132 22 5 -18 25 -22 39 -8 12 12 24 8 24 -8 0 -31 28 -13 45 28 22 55
50 85 103 108 45 19 62 18 62 -5 0 -8 10 -11 30 -8 23 3 30 0 30 -12 0 -34 30
-14 54 37 27 58 44 76 94 102 36 18 62 14 62 -9 0 -9 9 -13 25 -11 17 1 31 -5
40 -18 15 -21 15 -21 29 -2 8 11 18 32 21 47 9 39 41 76 86 98 51 27 73 26 66
-1 -5 -17 -2 -20 16 -15 26 6 41 -2 51 -29 7 -19 9 -19 32 8 13 15 24 36 24
45 0 32 39 81 81 102 46 24 74 20 66 -10 -4 -16 -2 -17 15 -7 16 10 22 8 39
-12 23 -28 40 -23 58 15 41 90 48 100 89 122 48 27 77 23 67 -8 -7 -22 5 -26
22 -9 9 9 18 5 37 -16 14 -15 29 -24 35 -21 5 4 17 30 25 59 16 56 40 84 94
112 38 18 62 14 62 -11 0 -12 7 -15 30 -12 23 4 30 1 30 -12 0 -47 35 -26 50
30 13 50 43 86 92 111 42 22 68 20 68 -6 0 -11 6 -14 25 -9 20 5 26 1 35 -20
15 -39 27 -32 44 27 17 59 52 97 110 121 42 18 56 14 56 -15 0 -13 7 -19 23
-19 13 0 32 -9 42 -20 22 -24 29 -17 46 44 15 56 37 84 80 107 49 25 65 24 72
-2 4 -15 11 -20 22 -15 11 4 26 -5 44 -24 l28 -31 11 26 c7 14 12 37 12 50 0
50 63 95 230 164 85 35 191 78 235 97 44 18 168 67 275 109 107 41 204 80 215
85 29 13 138 57 730 296 292 117 780 314 1085 437 305 124 708 286 895 362
891 359 1286 520 1685 682 102 42 223 91 270 109 47 18 180 71 295 117 116 47
419 169 675 272 256 103 587 237 735 297 149 60 522 211 830 335 1082 435
1331 536 1460 588 72 29 319 129 550 223 231 94 476 194 545 222 341 141 541
220 554 220 8 0 20 -17 26 -37 20 -67 32 -93 42 -93 5 0 6 5 3 10 -3 6 6 15
22 21 15 5 30 13 33 17 5 7 118 63 165 82 11 5 46 20 77 34 31 14 64 26 72 26
8 0 17 4 20 9 3 5 19 14 35 19 27 10 33 7 74 -32 31 -31 53 -66 76 -122 17
-44 37 -88 42 -98 6 -11 19 -42 29 -70 10 -28 57 -145 105 -261 48 -115 120
-291 160 -390 60 -149 123 -300 174 -420 5 -11 16 -36 24 -55 8 -19 41 -91 72
-160 41 -90 54 -129 47 -140 -6 -10 -34 -17 -83 -22 -154 -14 -411 -93 -912
-282 -126 -47 -237 -86 -247 -86 -10 0 -22 -5 -25 -10 -4 -6 -15 -8 -26 -5
-10 4 -19 2 -19 -2 0 -11 -64 -43 -84 -43 -7 0 -26 -6 -42 -14 -51 -25 -71
-28 -77 -12 -7 18 -11 16 88 56 44 18 94 38 112 46 17 8 34 14 37 14 3 0 39
15 78 33 40 19 125 55 188 81 63 27 169 71 235 98 237 99 312 128 326 128 7 0
20 6 28 14 9 7 81 39 160 71 119 48 147 56 162 47 24 -15 29 -15 29 1 0 11
-48 139 -80 212 -5 11 -21 51 -36 90 -14 38 -32 74 -39 80 -7 5 -15 24 -18 40
-4 23 -72 201 -82 213 -1 1 -49 -20 -106 -47 -57 -28 -171 -77 -252 -110 -82
-32 -151 -62 -155 -65 -3 -4 4 -15 16 -26 22 -21 30 -50 13 -50 -5 0 -13 9
-16 20 -3 11 -12 20 -18 20 -7 0 -20 19 -30 41 -15 30 -16 43 -7 54 9 10 8 21
-4 44 -26 50 -21 60 52 92 37 17 81 36 97 44 143 65 289 125 305 125 10 0 26
-10 36 -22 21 -29 18 -21 -48 137 -31 72 -63 152 -73 178 -9 27 -32 63 -49 81
-18 17 -41 46 -51 64 -11 18 -28 32 -38 32 -10 0 -64 -21 -120 -46 -56 -25
-116 -52 -134 -60 -17 -8 -35 -14 -41 -14 -19 0 -152 -64 -152 -74 0 -12 88
-284 105 -322 9 -20 10 -35 4 -41 -11 -11 -2 -43 12 -43 4 0 6 -7 3 -15 -4 -9
0 -15 7 -15 20 -1 -8 -15 -46 -24 l-30 -8 23 20 c23 20 29 42 12 42 -6 0 -26
-7 -45 -14 -19 -8 -35 -11 -35 -5 0 15 -26 10 -52 -11 -17 -13 -28 -16 -35 -9
-8 8 -20 6 -39 -5 -27 -14 -27 -15 -6 -16 19 0 22 -5 22 -40 0 -37 -2 -39 -37
-46 -21 -4 -45 -12 -53 -19 -8 -7 -25 -16 -37 -19 -21 -7 -23 -4 -23 31 0 21
12 70 26 108 34 92 38 111 25 119 -17 11 -81 -21 -81 -41 0 -20 -23 -89 -32
-99 -4 -3 -13 7 -22 23 -32 58 -27 57 -107 28 -41 -14 -83 -32 -95 -40 -20
-13 -33 -58 -37 -127 -3 -42 -14 -42 -21 -1 -3 21 -14 48 -24 61 -17 22 -19
22 -61 7 -68 -24 -71 -28 -71 -116 0 -44 -4 -79 -9 -79 -6 0 -26 25 -46 55
-21 30 -41 57 -45 60 -4 3 -25 -1 -46 -9 -42 -14 -40 -9 -72 -151 -12 -51 -23
-80 -32 -80 -15 0 -39 81 -40 132 0 41 -12 48 -50 28 l-30 -16 0 -89 c0 -87
-1 -90 -22 -90 -13 0 -45 -11 -72 -25 -51 -26 -68 -26 -46 0 15 18 12 19 -42
1 -24 -7 -68 -21 -98 -31 -30 -9 -59 -23 -65 -31 -5 -8 -28 -16 -49 -18 -22
-1 -42 -8 -44 -14 -2 -7 -14 -12 -27 -12 -14 0 -38 -13 -55 -30 -37 -36 -78
-49 -92 -29 -8 11 -9 11 -5 -3 4 -10 -1 -19 -11 -23 -9 -3 -18 -1 -20 4 -8 24
-90 3 -203 -52 -31 -15 -61 -27 -66 -27 -6 0 -16 -6 -22 -14 -7 -8 -30 -17
-52 -21 -21 -4 -41 -11 -44 -16 -3 -4 -23 -16 -43 -26 -20 -9 -48 -25 -61 -35
-26 -19 -46 -24 -36 -8 10 16 -27 -1 -58 -27 -32 -26 -43 -28 -50 -10 -3 7 -6
5 -6 -5 -1 -10 -6 -18 -12 -18 -5 0 -7 5 -4 10 10 16 -18 12 -79 -14 -38 -15
-53 -25 -43 -29 9 -3 21 1 27 9 7 8 16 14 21 14 15 0 10 -30 -6 -36 -8 -4 -15
-12 -15 -19 0 -8 -14 -12 -39 -12 -21 0 -64 -12 -96 -27 -32 -14 -66 -26 -76
-26 -21 0 -202 -81 -207 -92 -2 -5 -14 -8 -27 -8 -37 0 -75 -18 -75 -35 0 -9
-5 -13 -11 -10 -6 4 -8 14 -5 22 5 11 2 13 -10 9 -9 -3 -27 -9 -40 -12 -29 -7
-30 -12 -6 -30 15 -12 15 -13 -10 -14 -15 0 -51 -9 -80 -20 -29 -11 -56 -16
-61 -11 -4 4 6 11 24 15 18 3 30 9 26 12 -7 7 -64 -10 -122 -36 -22 -10 -71
-30 -110 -45 -41 -15 -56 -23 -36 -20 29 4 32 3 21 -10 -7 -8 -16 -13 -20 -10
-4 3 -19 -4 -33 -15 -14 -11 -30 -20 -36 -20 -10 0 -66 -22 -103 -41 -10 -5
-26 -9 -35 -9 -10 -1 -43 -14 -73 -30 -107 -57 -122 -62 -130 -49 -6 9 -19 7
-50 -10 -24 -12 -48 -20 -54 -18 -6 2 -22 0 -36 -6 -63 -26 -97 -37 -115 -37
-11 0 -29 -6 -40 -13 -11 -8 -34 -17 -51 -20 -17 -3 -66 -22 -107 -41 -86 -41
-91 -42 -83 -21 4 10 -1 15 -14 15 -13 0 -18 -5 -14 -15 4 -8 1 -15 -5 -15 -6
0 -11 -5 -11 -11 0 -11 24 -9 90 6 14 3 0 -8 -30 -24 -30 -17 -62 -30 -70 -31
-8 0 -28 -7 -44 -15 -16 -9 -31 -13 -33 -11 -10 10 9 26 39 34 18 4 34 14 36
22 3 9 0 11 -14 5 -11 -4 -32 -9 -47 -11 -41 -5 -68 -23 -65 -42 4 -24 -10
-42 -32 -42 -10 0 -23 -6 -27 -12 -9 -15 -58 -35 -118 -49 -33 -9 -41 -7 -53
8 -12 17 -12 17 -11 -2 4 -42 -1 -53 -21 -48 -11 3 -20 1 -20 -4 0 -5 -10 -20
-21 -32 -19 -20 -28 -22 -67 -17 -59 8 -92 -2 -255 -78 -43 -20 -84 -36 -91
-36 -8 0 -24 -9 -37 -21 l-24 -20 25 6 c30 7 49 15 113 44 52 23 72 27 62 11
-4 -6 -11 -8 -16 -5 -5 4 -9 2 -9 -3 0 -21 -120 -61 -200 -66 -20 -1 -67 -16
-105 -33 -39 -17 -90 -38 -115 -48 -25 -9 -58 -23 -75 -31 -16 -7 -43 -16 -60
-19 -16 -4 -43 -13 -60 -20 -57 -25 -80 -34 -102 -40 -13 -4 -23 -11 -23 -16
0 -5 -11 -7 -25 -3 -17 4 -27 1 -31 -9 -3 -9 -40 -28 -82 -42 -42 -15 -86 -31
-97 -35 -45 -18 -60 -23 -68 -22 -8 2 -125 -44 -212 -83 -90 -41 -127 -55
-144 -55 -9 0 -48 -15 -86 -34 -39 -18 -99 -42 -133 -51 -54 -16 -65 -16 -73
-4 -5 8 -9 9 -9 4 0 -6 -15 -16 -34 -23 -19 -7 -36 -21 -39 -32 -3 -12 -14
-20 -27 -20 -19 0 -20 2 -10 15 21 25 -10 19 -93 -20 -42 -19 -85 -35 -96 -35
-26 0 -129 -52 -113 -58 10 -3 9 -9 -4 -23 -16 -18 -16 -19 1 -19 28 0 11 -10
-24 -15 -18 -2 -38 -9 -46 -15 -24 -20 -29 9 -6 34 28 30 27 38 -5 26 -14 -6
-36 -10 -48 -10 -13 0 -31 -9 -41 -20 -9 -10 -20 -19 -24 -18 -3 1 -25 -2 -49
-6 -32 -6 -46 -14 -54 -32 -12 -26 -56 -59 -66 -50 -3 4 3 13 14 21 25 19 6
19 -40 0 -34 -14 -53 -31 -21 -19 28 11 16 -22 -12 -34 -28 -11 -28 -12 7 -7
29 5 32 3 20 -8 -20 -17 -88 -40 -99 -32 -5 3 -12 1 -15 -4 -17 -27 -235 -111
-288 -111 -15 0 -28 -4 -28 -8 0 -9 -37 -26 -110 -51 -109 -39 -149 -54 -185
-71 -40 -18 -115 -39 -167 -46 -31 -4 -108 -43 -108 -54 0 -5 -19 -11 -42 -15
-24 -4 -70 -20 -102 -36 -33 -16 -66 -29 -75 -29 -9 0 -25 -6 -36 -14 -11 -7
-33 -16 -50 -20 -16 -4 -57 -20 -90 -35 -95 -45 -142 -63 -167 -66 -13 -2 -36
-6 -53 -10 l-30 -6 29 26 c15 14 27 28 25 29 -2 2 -29 -8 -59 -23 -54 -25 -55
-26 -25 -31 32 -6 29 -9 -22 -37 -22 -11 -39 -3 -43 22 -3 19 -10 18 -10 -2 0
-19 -68 -73 -92 -73 -6 0 -36 -13 -67 -29 -55 -29 -84 -41 -108 -47 -7 -1 -33
-16 -58 -33 -25 -17 -56 -33 -69 -37 -13 -3 -34 -15 -46 -26 -12 -12 -39 -22
-60 -23 -34 -3 -82 -19 -132 -46 -10 -5 -26 -9 -36 -9 -11 0 -40 -11 -66 -25
-26 -14 -53 -25 -61 -25 -7 0 -15 -4 -17 -9 -6 -16 -104 -59 -151 -66 -26 -4
-51 -13 -55 -20 -7 -12 -52 -26 -84 -26 -10 0 -18 -7 -18 -15 0 -8 -17 -22
-37 -31 -21 -8 -47 -20 -59 -25 -12 -5 -30 -9 -40 -7 -25 3 -69 -9 -120 -31
-23 -11 -55 -22 -70 -26 -16 -4 -44 -15 -63 -25 -22 -12 -40 -15 -49 -10 -21
12 -62 -8 -62 -30 0 -23 -19 -34 -33 -20 -6 6 -19 11 -30 11 -14 0 -17 5 -12
20 5 17 2 20 -24 20 -26 0 -30 3 -28 27 2 22 -3 29 -20 31 -19 3 -21 6 -13 23
8 14 8 19 -1 17 -7 -2 -26 22 -43 52 -17 31 -53 78 -79 105 l-49 50 8 -50 c4
-27 9 -66 10 -85 1 -19 5 -50 9 -68 7 -29 5 -33 -11 -30 -28 5 -24 -53 9 -122
14 -30 29 -71 32 -92 6 -30 4 -38 -14 -47 -17 -10 -21 -9 -21 5 0 10 -5 14
-15 10 -8 -3 -15 -2 -15 2 0 4 -18 27 -40 52 -22 24 -60 85 -86 135 -25 49
-52 95 -60 101 -8 6 -14 14 -14 17 0 7 -45 57 -52 57 -3 0 -3 -45 0 -101 4
-79 2 -103 -9 -110 -12 -7 -11 -16 4 -57 9 -28 17 -57 17 -66 0 -9 8 -24 18
-34 10 -10 18 -34 19 -57 1 -33 -2 -42 -23 -52 -19 -9 -24 -8 -24 1 0 7 -10
12 -21 12 -15 -1 -28 10 -41 32 -10 19 -32 48 -48 65 -17 18 -30 38 -30 44 0
7 -14 39 -32 70 -17 32 -41 76 -53 98 -12 22 -29 41 -38 43 -15 3 -16 -5 -10
-75 12 -126 10 -148 -8 -145 -15 2 -15 -2 -5 -33 7 -19 15 -38 19 -41 4 -4 7
-15 7 -24 0 -9 9 -35 20 -58 31 -63 22 -102 -23 -102 -15 0 -17 5 -12 30 7 31
0 36 -25 20 -23 -14 -55 22 -122 140 -90 159 -97 170 -117 170 -10 0 -5 -185
5 -202 2 -4 -2 -11 -11 -15 -11 -7 -14 -18 -9 -41 4 -18 10 -32 14 -32 4 0 10
-17 14 -39 3 -21 13 -44 21 -51 20 -16 20 -70 0 -71 -8 -1 -21 -2 -27 -3 -7
-1 -16 -5 -20 -11 -5 -6 -8 -5 -8 3 0 6 -7 12 -15 12 -8 0 -15 9 -15 20 0 11
-7 20 -15 20 -8 0 -15 5 -15 11 0 6 -11 25 -24 42 -13 18 -50 85 -83 150 -33
64 -62 114 -66 111 -4 -4 -14 -1 -24 7 -15 12 -16 12 -10 -3 3 -10 9 -65 13
-123 6 -94 5 -105 -10 -105 -9 0 -16 -3 -16 -7 0 -19 54 -149 65 -158 7 -6 15
-31 17 -55 3 -41 1 -45 -20 -48 -21 -3 -22 -2 -12 18 14 26 8 35 -17 22 -17
-8 -67 -2 -61 8 1 3 -13 27 -32 55 -18 27 -49 79 -68 115 -19 36 -43 80 -53
99 -10 18 -30 40 -45 47 l-27 14 8 -82 c13 -134 12 -143 -7 -140 -12 2 -18 -4
-18 -18 0 -11 5 -20 10 -20 6 0 10 -9 10 -19 0 -11 4 -22 9 -25 5 -3 12 -22
15 -41 4 -19 11 -35 15 -35 11 0 21 -38 15 -54 -3 -7 -21 -18 -40 -25 -28 -10
-38 -10 -50 0 -8 7 -13 18 -10 26 3 7 -1 13 -9 13 -8 0 -15 6 -15 13 0 8 -11
24 -25 37 -14 13 -25 28 -25 34 0 14 -60 131 -91 178 -19 30 -56 55 -65 45 -1
-1 3 -50 10 -109 11 -102 11 -108 -6 -108 -18 0 -25 -24 -9 -34 5 -3 12 -22
16 -43 4 -20 18 -57 31 -82 34 -65 32 -81 -11 -83 -19 -1 -43 -2 -52 -2 -13
-1 -17 6 -16 20 1 13 -12 37 -35 61 -20 21 -60 84 -88 138 -31 62 -59 104 -72
110 -12 5 -22 13 -22 17 0 5 -4 8 -9 8 -11 0 -2 -121 10 -136 13 -16 -1 -74
-17 -74 -15 0 -19 -36 -5 -44 5 -3 11 -18 14 -33 2 -16 14 -52 25 -81 l20 -53
-22 -24 c-31 -33 -43 -31 -67 10 -12 19 -25 35 -30 35 -5 0 -9 5 -9 11 0 6
-11 25 -25 43 -14 18 -25 40 -25 48 0 9 -6 20 -13 26 -7 6 -28 39 -46 74 -20
40 -44 70 -63 81 l-30 17 6 -27 c3 -16 9 -65 12 -110 7 -80 6 -83 -15 -83 -11
0 -21 -2 -21 -5 0 -8 40 -109 50 -127 6 -10 10 -23 10 -30 0 -7 7 -25 14 -40
13 -24 13 -28 0 -28 -8 0 -14 5 -14 10 0 14 -27 12 -33 -2 -5 -16 -57 12 -72
39 -5 9 -15 22 -21 28 -12 11 -80 128 -114 194 -20 40 -80 112 -80 96 0 -3 9
-60 21 -126 12 -66 18 -123 15 -127 -4 -3 -16 -1 -26 6 -28 17 -26 -5 4 -71
49 -108 50 -113 28 -135 -24 -24 -62 -38 -62 -23 0 6 5 10 11 9 6 -2 14 3 16
10 3 6 -2 13 -11 14 -9 0 -22 1 -28 2 -8 1 -12 -9 -10 -26 3 -21 -4 -32 -34
-52 -34 -23 -40 -24 -54 -11 -9 8 -21 15 -26 15 -12 0 -72 69 -79 91 -3 10
-14 20 -23 23 -10 3 -26 19 -35 36 -10 16 -22 30 -28 30 -5 0 -9 7 -9 15 0 18
-36 91 -48 99 -8 5 -78 -28 -482 -226 -146 -71 -292 -141 -325 -155 -33 -14
-64 -29 -70 -33 -23 -18 -82 -48 -120 -60 -58 -19 -139 -60 -148 -76 -5 -8
-12 -12 -17 -9 -9 5 -45 -10 -215 -90 -44 -20 -98 -45 -120 -55 -47 -21 -181
-82 -245 -112 -25 -12 -56 -27 -70 -35 -14 -7 -47 -23 -75 -35 -27 -12 -88
-42 -135 -66 -112 -58 -129 -67 -165 -83 -16 -7 -42 -21 -57 -32 -15 -10 -42
-22 -60 -28 -18 -6 -69 -28 -113 -49 -44 -21 -165 -76 -270 -123 -148 -66
-191 -89 -193 -105 -4 -25 38 -109 88 -177 64 -86 51 -85 223 -30 331 105 487
146 487 128 0 -40 -179 -127 -417 -203 -131 -42 -171 -50 -202 -45 -56 9 -123
57 -151 107 -13 24 -34 60 -47 81 l-23 37 -36 -15 c-20 -8 -47 -15 -59 -15
-12 0 -28 -7 -35 -15 -7 -8 -19 -15 -27 -15 -8 0 -31 -11 -51 -25 -20 -14 -47
-25 -59 -25 -24 0 -53 -24 -53 -45 0 -20 27 -44 58 -52 14 -3 76 -1 137 5 128
12 172 8 180 -19 4 -11 1 -106 -6 -212 -12 -203 -7 -662 11 -860 12 -138 32
-179 107 -217 29 -14 63 -36 75 -47 68 -62 346 -161 557 -198 75 -13 183 -38
241 -55 58 -18 140 -37 183 -43 103 -13 107 -22 79 -144 -24 -103 -56 -290
-72 -418 -18 -142 -18 -140 5 -140 13 0 21 -8 23 -22 2 -13 8 -23 13 -23 6 0
9 -8 7 -17 -2 -13 -13 -18 -38 -19 -18 0 -36 -6 -38 -12 -2 -7 1 -12 6 -12 17
0 35 -66 24 -87 -5 -10 -7 -24 -4 -32 3 -10 0 -12 -12 -8 -11 5 -16 1 -16 -14
0 -13 6 -19 18 -17 11 2 18 -4 20 -17 2 -15 -6 -23 -28 -32 -20 -7 -30 -18
-30 -31 0 -35 11 -52 34 -52 12 0 27 -5 34 -12 17 -17 15 -39 -3 -32 -8 4 -15
1 -15 -5 0 -6 5 -11 10 -11 19 0 10 -32 -10 -37 -16 -4 -19 -11 -14 -27 4 -11
12 -24 18 -28 6 -5 2 -8 -11 -8 -12 0 -34 -5 -50 -11 l-28 -11 23 -15 c12 -9
22 -20 22 -25 0 -5 7 -16 15 -25 9 -8 13 -23 10 -33 -4 -12 1 -19 16 -23 18
-5 21 -11 16 -36 -5 -24 -3 -31 9 -31 23 0 28 -29 9 -50 -17 -19 -17 -20 3
-20 12 0 22 6 22 13 0 14 35 39 44 30 11 -11 6 -21 -14 -26 -11 -3 -20 -14
-20 -24 0 -10 -5 -24 -11 -30 -8 -8 -8 -13 0 -17 6 -4 11 -1 11 7 0 8 14 20
30 26 25 8 30 7 30 -6 0 -9 -8 -22 -17 -29 -16 -12 -15 -13 10 -14 20 0 27 5
27 19 0 12 9 21 25 25 16 4 25 13 25 26 0 17 32 40 54 40 10 0 12 -40 3 -49
-6 -6 -7 -11 -3 -11 4 0 17 11 27 24 15 19 27 23 66 21 36 -1 49 -6 51 -18 2
-11 -3 -17 -16 -17 -15 0 -21 -9 -25 -37 -8 -45 -1 -55 12 -19 13 33 54 37 49
4 -4 -30 20 -35 31 -5 10 26 37 42 46 27 8 -14 -3 -30 -21 -30 -8 0 -14 -7
-14 -15 0 -11 8 -13 30 -9 23 5 30 3 30 -9 0 -9 -8 -21 -19 -26 -10 -6 -21
-18 -25 -26 -5 -13 -1 -15 16 -9 38 12 107 13 114 2 3 -5 1 -15 -5 -21 -16
-16 -13 -27 7 -27 26 0 34 -11 21 -27 -18 -21 -48 -17 -42 7 3 12 -1 22 -11
26 -9 3 -16 12 -16 20 0 21 -17 17 -23 -6 -3 -13 0 -20 9 -20 16 0 19 -26 4
-35 -17 -11 -11 -25 10 -25 18 0 19 -3 10 -20 -14 -26 -55 -28 -46 -3 5 13 0
11 -18 -6 -33 -31 -33 -43 0 -31 24 10 25 9 22 -20 -2 -18 3 -34 11 -39 8 -6
11 -16 6 -30 -5 -16 -1 -27 12 -37 17 -13 17 -15 -8 -37 -14 -12 -29 -30 -32
-39 -4 -10 -15 -18 -26 -18 -26 0 -36 -59 -13 -78 14 -11 14 -16 4 -33 -8 -12
-12 -22 -10 -23 2 -2 11 -7 21 -13 18 -9 18 -10 1 -28 -12 -11 -19 -14 -22 -6
-4 13 -32 15 -32 2 0 -6 5 -13 11 -17 6 -3 9 -15 6 -25 -7 -25 10 -25 18 0 6
21 62 25 58 4 -2 -7 2 -13 7 -13 6 0 10 7 10 16 0 11 6 15 19 11 14 -3 18 -1
14 9 -3 8 -14 14 -24 14 -14 0 -19 7 -19 30 0 19 -5 30 -14 30 -21 0 -30 18
-17 34 7 9 5 17 -9 29 -28 23 -25 34 8 33 18 -1 27 -6 27 -18 0 -9 4 -20 8
-25 5 -4 8 -3 6 2 -5 22 13 43 32 38 24 -7 24 -19 -1 -33 -27 -14 -15 -39 18
-37 21 2 26 7 27 30 0 19 8 33 26 44 24 15 29 15 59 0 18 -9 36 -14 41 -11 10
6 12 87 3 97 -5 5 -26 -9 -58 -39 -6 -6 -22 -16 -34 -23 -18 -10 -23 -9 -28 3
-3 8 -1 24 6 35 6 12 8 21 5 21 -3 0 -1 8 4 19 14 26 69 35 91 16 27 -25 37
-1 42 102 6 103 -2 115 -46 68 -24 -25 -60 -33 -71 -15 -3 5 -19 7 -35 3 -33
-6 -44 15 -12 24 9 2 26 19 37 36 11 18 31 33 44 35 l23 4 -22 15 c-12 8 -25
26 -30 39 -6 15 -18 24 -30 24 -30 0 -16 17 21 25 23 5 27 10 19 20 -8 9 -7
20 2 40 10 22 9 28 -2 35 -17 10 -16 11 33 34 20 9 37 19 37 22 0 3 -4 3 -8 0
-4 -2 -14 -1 -22 4 -12 7 -12 12 -2 22 18 18 15 33 -4 17 -13 -10 -17 -10 -25
2 -5 8 -9 18 -9 22 0 14 28 19 49 7 12 -6 21 -7 21 -2 0 5 11 14 25 20 24 11
25 10 25 -17 0 -28 -22 -47 -41 -36 -5 4 -6 -1 -3 -9 3 -8 12 -17 19 -20 8 -3
17 -21 21 -40 5 -30 2 -39 -17 -54 -24 -20 -36 -57 -16 -49 18 7 18 -45 0 -65
-14 -16 -14 -22 4 -64 l20 -46 15 43 c8 24 14 60 12 79 -2 33 27 151 44 178 7
10 15 9 40 -4 18 -8 32 -20 32 -25 0 -6 14 -7 33 -4 33 6 67 -8 54 -22 -4 -4
-17 -2 -27 5 -16 10 -20 10 -20 0 0 -18 20 -47 20 -31 0 7 8 12 18 11 41 -3
59 5 102 42 25 22 48 40 53 40 14 0 7 -18 -9 -24 -9 -4 -14 -9 -12 -12 8 -8
78 23 78 35 0 5 -5 11 -12 13 -9 3 -9 6 0 12 7 4 12 3 12 -3 0 -7 8 -7 23 -2
12 4 39 7 60 5 25 -2 37 1 35 9 -4 19 21 57 38 57 8 0 12 5 9 10 -3 6 -1 10 4
10 6 0 11 7 11 15 0 8 9 15 20 15 14 0 18 5 13 18 -6 15 -5 15 10 4 14 -12 19
-12 32 1 11 12 12 17 2 20 -6 3 -1 6 13 6 18 1 21 4 11 10 -10 7 -11 10 -1 16
8 5 18 1 26 -9 12 -17 13 -16 23 2 6 11 7 23 3 27 -4 5 0 4 8 0 21 -12 59 -15
65 -5 3 5 12 7 19 4 7 -3 16 2 20 11 3 10 11 13 18 8 22 -13 39 -12 45 3 4 11
10 11 39 -1 19 -8 34 -10 34 -5 0 12 41 24 49 14 9 -14 54 -11 70 4 12 12 16
11 23 -2 10 -18 38 -22 38 -6 0 10 55 8 66 -3 3 -3 14 -1 24 5 14 9 22 9 32 0
10 -8 24 -9 48 -2 24 7 36 6 41 -1 4 -7 11 -9 16 -6 6 4 29 9 52 12 31 4 43 1
47 -10 4 -8 10 -12 16 -9 16 10 78 10 81 0 2 -5 11 -5 22 1 11 5 47 9 80 7 33
-1 68 2 78 7 21 12 23 0 1 -15 -13 -10 -13 -12 5 -12 12 0 21 4 21 9 0 4 8 7
18 5 9 -1 23 1 30 5 7 5 12 3 12 -6 0 -16 45 -12 67 6 9 7 13 5 13 -6 0 -12 7
-13 34 -7 19 4 40 4 47 -1 8 -4 16 -4 19 0 9 15 55 17 53 4 -4 -18 8 -16 22 4
11 15 13 15 25 -7 9 -17 14 -19 20 -10 15 25 180 30 216 8 6 -4 28 -3 49 3 21
6 46 8 56 6 11 -3 22 -1 25 4 3 5 10 9 15 9 6 0 8 -4 4 -9 -8 -13 12 -24 28
-14 16 10 77 12 77 2 0 -8 20 -7 36 3 12 8 67 3 84 -7 5 -3 10 -2 10 3 0 5 17
4 38 -3 30 -11 38 -11 40 0 2 10 11 11 38 3 20 -5 43 -7 51 -4 9 4 21 2 28 -4
9 -8 15 -8 20 0 3 6 11 8 16 4 5 -3 16 0 24 6 12 10 18 10 31 -1 14 -11 49
-16 72 -9 4 2 48 4 97 6 154 6 175 6 175 -5 0 -4 24 -4 54 -1 30 3 52 2 50 -2
-3 -4 2 -8 10 -8 9 0 16 5 16 11 0 8 6 7 17 -2 12 -11 17 -11 20 -2 4 10 8 9
20 -2 17 -17 37 -10 29 11 -6 16 5 19 20 4 9 -9 123 -21 199 -21 32 -1 85 8
91 14 3 3 18 1 32 -4 14 -5 28 -6 31 -1 3 4 36 8 74 8 49 -1 66 -4 62 -13 -5
-16 11 -17 20 -2 4 6 19 7 37 4 20 -5 28 -4 24 3 -4 7 3 10 19 9 14 -1 30 -8
34 -16 6 -9 11 -10 15 -2 4 6 12 9 17 5 14 -8 159 -11 159 -2 0 9 102 4 118
-6 7 -4 16 -5 21 -1 5 3 13 0 17 -6 5 -8 9 -7 14 2 7 10 12 10 23 0 11 -9 17
-9 22 -1 4 7 18 9 31 6 13 -4 24 -2 24 3 0 11 59 7 108 -8 17 -5 32 -6 32 -2
0 8 42 7 57 -2 7 -4 14 -3 18 3 4 7 13 7 26 -1 17 -8 23 -7 35 8 7 10 14 13
14 7 0 -15 83 -24 92 -10 4 6 18 6 42 -1 19 -6 38 -8 41 -4 10 9 95 8 95 -2 0
-4 9 -3 21 3 11 7 23 9 26 6 3 -2 15 -1 27 4 13 5 29 4 40 -2 24 -13 115 -18
123 -5 3 5 9 3 14 -4 6 -9 12 -10 17 -4 8 12 44 16 37 5 -3 -5 -1 -11 5 -15 5
-3 10 -2 10 3 0 15 122 26 130 12 4 -7 16 -9 29 -5 14 4 21 2 21 -7 0 -9 3 -9
8 -2 9 14 38 24 46 16 11 -10 86 -11 92 0 3 5 14 2 25 -8 16 -15 19 -15 24 -1
6 15 44 12 56 -5 3 -5 19 -3 35 3 16 7 32 12 35 11 4 -1 18 -3 33 -6 14 -2 30
-7 35 -10 5 -4 12 -2 15 3 3 5 27 7 53 5 61 -6 101 -5 135 2 14 3 29 0 33 -5
3 -6 14 -11 23 -11 15 0 15 2 2 10 -13 8 -13 10 2 10 9 0 27 -5 40 -11 14 -6
32 -7 47 -1 13 4 49 5 79 1 33 -5 61 -4 68 1 6 6 14 7 17 3 4 -3 30 -8 59 -10
29 -2 58 -5 65 -8 6 -2 13 1 15 7 6 16 214 10 268 -7 16 -5 19 -3 13 12 -7 17
-6 17 20 0 15 -9 27 -14 27 -10 0 5 38 9 85 10 51 1 83 -2 80 -8 -7 -11 18
-12 29 -2 8 9 76 11 76 2 0 -6 77 -2 97 5 6 3 13 1 15 -4 2 -6 18 -6 42 1 25
7 42 7 48 1 6 -6 22 -7 40 -1 17 5 51 4 80 -1 28 -6 54 -7 59 -5 5 3 23 -2 41
-11 26 -14 31 -14 21 -2 -7 8 -10 18 -6 21 10 10 35 8 29 -2 -4 -5 14 -9 39
-9 27 1 42 5 38 11 -4 7 1 8 13 2 29 -12 117 -15 130 -4 8 6 29 6 60 -2 37 -9
49 -10 52 -1 2 7 9 9 15 5 14 -9 117 -11 117 -3 0 4 12 5 26 2 19 -3 22 -7 12
-13 -8 -5 -8 -9 -2 -9 6 0 17 7 25 16 12 14 14 14 26 -2 11 -16 13 -16 19 -1
3 9 9 15 13 12 4 -2 25 -5 47 -6 21 -1 45 -7 53 -13 10 -7 13 -7 9 0 -4 6 6
10 28 10 21 0 34 -5 34 -13 0 -17 19 -17 25 0 6 13 90 21 108 10 20 -12 62
-10 85 4 19 12 22 12 22 -4 0 -15 2 -15 16 3 15 18 15 18 10 0 -6 -17 -5 -18
17 -3 14 9 29 12 37 7 7 -4 20 -6 28 -2 9 3 13 1 9 -4 -3 -5 12 -9 34 -9 21 0
39 3 39 7 0 9 25 5 52 -6 9 -4 25 -3 36 3 11 6 23 7 26 3 11 -11 136 -8 136 3
0 6 4 4 8 -3 8 -12 81 -10 102 3 5 3 13 -3 19 -12 8 -15 14 -16 38 -7 22 8
288 12 288 4 0 -9 65 -4 84 7 13 9 26 11 30 6 9 -13 62 -15 77 -2 10 9 14 9
14 0 0 -6 13 -11 29 -11 16 0 42 -5 57 -10 17 -7 31 -7 38 -1 12 10 248 19
276 10 8 -2 14 1 13 7 -2 12 52 4 76 -10 6 -4 11 -4 11 1 0 10 107 10 116 0
12 -11 26 -8 18 4 -5 8 -1 8 14 0 26 -14 33 -14 29 0 -1 6 4 14 11 16 6 3 12
0 12 -7 0 -8 18 -9 60 -4 44 5 64 3 77 -7 13 -11 17 -11 20 -1 3 6 9 10 14 6
12 -7 163 -9 175 -1 13 8 94 -4 94 -14 0 -4 12 -4 28 1 50 15 57 15 55 3 -4
-17 8 -16 34 2 15 11 24 12 29 4 4 -7 21 -9 44 -5 20 3 40 3 44 -1 8 -9 46
-12 46 -4 0 9 53 7 67 -2 6 -4 13 -1 16 5 4 10 7 11 18 1 14 -14 50 -18 48 -5
-4 21 3 23 27 7 15 -9 23 -12 19 -5 -10 15 143 7 173 -9 25 -13 35 -14 28 -2
-10 15 40 19 60 4 13 -9 20 -10 25 -2 9 14 150 12 164 -3 4 -4 14 0 22 8 9 8
23 12 32 9 35 -14 73 -17 80 -8 4 6 27 6 66 -2 48 -10 65 -10 92 1 41 18 43
17 43 -2 0 -13 3 -14 13 -5 8 6 17 8 20 5 11 -11 82 -8 80 3 -1 6 9 8 22 5 14
-2 25 -7 25 -11 0 -7 61 -8 75 0 6 3 21 3 35 1 14 -2 46 -4 72 -3 26 0 50 -4
53 -9 4 -6 10 -8 15 -5 16 10 185 12 204 3 14 -7 16 -7 11 2 -6 9 -2 9 14 1
12 -7 29 -8 39 -4 15 7 48 9 62 3 16 -6 400 -4 400 3 0 4 9 3 21 -3 14 -8 29
-8 49 -1 18 6 32 6 35 1 3 -6 16 -5 30 0 16 6 27 6 31 -1 3 -6 15 -8 26 -6 10
3 33 1 50 -4 23 -6 34 -5 39 3 6 10 18 10 53 0 30 -8 54 -9 70 -3 13 6 26 7
29 4 3 -3 39 -7 79 -10 40 -2 78 -6 85 -8 7 -2 15 0 18 6 4 5 11 6 17 3 14 -9
198 -15 211 -7 5 3 49 7 96 8 48 1 93 5 100 9 8 5 17 3 22 -5 6 -9 12 -10 17
-4 9 13 145 17 137 4 -8 -12 -3 -11 31 1 20 8 29 8 35 -1 5 -9 11 -8 24 4 19
19 35 22 35 7 0 -7 7 -7 20 0 11 6 25 8 30 5 6 -3 10 -1 10 4 0 6 5 11 11 11
5 0 7 -5 3 -11 -4 -8 1 -9 17 -3 13 5 36 8 51 9 14 0 24 3 21 8 -9 15 10 7 24
-10 8 -10 12 -13 9 -6 -9 17 29 29 102 31 27 1 49 9 62 22 11 11 20 16 20 10
0 -15 41 -12 73 5 30 15 61 10 50 -9 -3 -6 -1 -6 8 2 7 6 22 12 34 12 11 0 30
7 42 15 15 10 24 12 28 5 4 -7 16 -1 30 14 16 18 30 24 42 19 16 -6 16 -5 5
10 -8 9 -12 22 -9 29 4 8 6 7 6 -4 1 -23 25 -23 46 -1 14 13 18 14 25 2 7 -11
10 -11 15 2 3 9 5 22 3 30 -2 8 3 13 11 11 9 -2 11 3 7 14 -5 14 -4 15 9 4 13
-10 15 -9 15 10 0 19 2 20 15 10 9 -8 15 -9 15 -2 0 6 -4 13 -10 17 -16 10 11
53 41 64 15 5 30 7 33 4 14 -14 31 24 25 57 -5 34 -6 34 -13 9 -4 -14 -6 -29
-5 -35 4 -23 -2 -26 -17 -8 -12 15 -15 16 -10 2 4 -13 -1 -16 -25 -16 -34 1
-39 13 -8 21 13 4 18 10 13 18 -4 8 -3 10 5 5 6 -4 18 -1 26 7 17 17 10 28
-13 21 -10 -2 -3 2 13 10 17 8 34 12 39 9 4 -3 5 4 1 16 -4 13 -2 21 6 21 8 0
9 10 5 32 -6 31 -6 31 14 13 13 -12 18 -25 14 -38 -4 -14 -2 -18 12 -15 9 1
19 9 22 17 3 9 0 11 -8 6 -9 -5 -10 -2 -5 14 4 15 2 21 -8 21 -11 0 -12 9 -5
48 5 26 9 53 10 60 1 7 6 11 12 9 6 -3 11 9 12 26 1 23 -1 26 -8 13 -13 -23
-27 -20 -20 6 3 12 1 19 -4 15 -13 -7 -5 64 8 80 5 7 7 17 4 22 -4 5 -2 12 4
16 6 4 8 12 4 18 -3 7 4 1 15 -12 17 -19 24 -21 36 -11 8 7 15 18 14 24 0 7
-2 7 -5 -1 -3 -7 -12 -9 -20 -6 -24 9 -15 22 21 29 24 4 41 16 55 38 11 17 20
25 20 19 0 -9 7 -10 26 -3 14 6 30 8 35 4 5 -3 9 -1 9 5 0 19 41 49 61 44 14
-4 19 0 19 16 0 14 4 20 11 15 6 -3 14 -3 18 2 6 9 45 33 91 56 14 7 33 21 43
32 9 10 17 16 17 11 0 -4 15 6 34 23 19 17 44 33 56 37 22 7 53 30 97 73 13
12 28 22 33 22 6 0 10 4 10 9 0 5 25 35 55 67 30 33 55 65 55 71 0 7 4 13 8
13 9 0 48 81 44 92 -1 4 7 12 18 18 11 6 20 19 20 29 0 10 8 29 18 42 31 43
40 65 47 113 4 25 12 46 17 46 6 0 8 9 5 20 -3 12 0 20 7 20 11 0 14 14 21
115 1 22 5 47 8 55 3 8 8 29 10 45 3 17 16 75 28 130 20 91 22 127 23 415 1
173 -3 428 -9 565 -13 346 -11 1065 4 1093 8 15 8 28 0 49 -10 25 -5 494 6
693 5 87 15 2769 20 5830 6 2872 7 2969 26 3175 17 184 35 265 69 298 19 19
30 24 33 15 4 -9 6 -7 6 3 1 18 48 32 53 17 2 -5 15 -3 28 5 61 33 90 53 90
60 0 4 11 7 25 7 15 0 25 6 25 14 0 8 13 23 29 32 16 9 27 23 24 30 -2 6 2 18
10 25 12 12 12 15 -1 25 -20 15 -5 37 20 31 15 -4 18 -2 13 11 -12 28 -11 47
1 45 14 -3 7 34 -10 56 -8 10 -8 13 0 8 7 -4 11 6 11 29 0 27 -4 34 -16 29
-11 -4 -10 -1 4 15 15 17 16 24 7 46 -17 35 -15 55 3 48 10 -4 15 0 15 15 l0
21 -9628 0 -9629 0 -7 -807z m18284 -440 c18 -100 19 -110 31 -317 18 -319 27
-722 30 -1331 5 -799 1 -2019 -7 -2260 -8 -230 -8 -388 1 -600 4 -82 8 -179 9
-215 2 -36 -5 -95 -14 -132 -11 -46 -14 -85 -10 -130 4 -34 5 -234 3 -443 -2
-327 -5 -407 -14 -452 -1 -4 1 -16 5 -25 6 -13 2 -719 -4 -803 0 -5 2 -345 5
-755 4 -410 7 -1107 8 -1550 2 -764 3 -807 20 -834 14 -21 17 -39 13 -75 -3
-25 -4 -93 -3 -151 4 -202 -1 -346 -16 -485 -8 -77 -13 -152 -10 -167 3 -14 0
-42 -7 -62 -6 -19 -11 -50 -12 -68 0 -47 -16 -93 -39 -114 -28 -25 -38 -6 -28
57 23 145 29 416 29 1240 -1 920 10 2429 21 2979 1 30 -1 134 -5 230 -8 212
-8 172 -1 315 4 104 5 192 2 410 0 28 1 73 3 100 5 93 1 128 -14 122 -9 -4
-14 2 -14 16 0 12 -1 66 -3 120 -2 86 0 99 17 113 16 13 16 15 2 10 -16 -5
-17 6 -16 109 1 63 6 115 11 115 5 0 7 9 4 20 -3 10 1 24 9 31 18 15 18 24 -2
44 -19 18 -24 161 -10 250 5 28 8 57 7 65 -4 61 -10 701 -15 1635 -5 1037 -9
1444 -22 2230 -6 431 -6 780 2 810 10 39 21 21 34 -52z m-1600 -4652 c0 -19
-71 -64 -172 -107 -99 -43 -252 -107 -478 -199 -153 -63 -428 -175 -560 -230
-167 -69 -410 -168 -695 -285 -137 -56 -306 -125 -375 -154 -199 -85 -349
-146 -354 -146 -3 0 -157 -64 -343 -141 -186 -78 -381 -157 -433 -176 -91 -34
-157 -43 -169 -25 -3 5 -37 21 -76 36 -38 15 -80 31 -92 36 -13 5 -36 5 -58
-1 -40 -11 -56 -6 -37 13 16 16 120 17 173 2 25 -8 60 -28 78 -45 28 -27 38
-30 68 -24 33 6 314 116 478 188 44 19 193 80 330 136 138 56 327 134 420 173
94 39 217 90 275 113 99 40 421 172 645 265 55 23 156 64 225 91 69 28 193 79
275 113 158 67 278 116 510 210 191 78 241 100 305 135 63 35 60 34 60 22z
m-155 -302 c0 -8 -20 -21 -45 -30 -25 -8 -63 -23 -85 -33 -22 -9 -114 -47
-205 -82 -91 -36 -196 -79 -234 -95 -38 -17 -90 -37 -115 -46 -25 -8 -64 -23
-86 -33 -78 -35 -135 -51 -135 -40 0 5 10 12 23 15 12 4 51 20 87 37 36 17 74
34 85 39 11 4 73 30 137 58 65 28 121 51 125 51 4 0 49 18 98 39 50 22 104 45
120 51 17 7 71 29 120 50 94 40 110 43 110 19z m-13359 -4690 c12 -20 -19 -36
-131 -69 -60 -17 -144 -42 -185 -55 -718 -226 -992 -307 -1342 -397 -70 -18
-77 -7 -10 16 245 87 671 222 1432 453 63 19 133 41 155 48 50 17 72 18 81 4z
m14872 -1875 l-3 -46 -78 -2 c-43 -2 -80 1 -83 6 -3 5 32 47 78 94 l83 86 3
-46 c2 -25 2 -67 0 -92z"/>
<path d="M44506 34793 c-5 -6 -635 -8 -4271 -18 -1193 -3 -2213 -7 -2265 -10
-250 -14 -372 -80 -452 -246 -63 -130 -62 -114 -60 -879 1 -382 2 -1013 2
-1402 1 -389 5 -720 9 -735 l7 -28 8 35 c13 60 15 94 6 127 -4 17 -5 34 -2 38
4 3 7 66 8 139 0 73 4 138 8 144 4 6 2 21 -4 32 -7 14 -8 26 -2 33 5 7 9 75 9
152 1 76 5 141 9 142 10 3 9 295 0 319 -3 8 -2 13 2 10 9 -5 6 130 -4 202 -4
29 -2 42 6 42 7 0 9 8 5 21 -5 14 -3 19 3 15 8 -4 11 19 12 71 1 113 1 275 1
373 -1 139 6 244 19 280 1 3 4 111 6 240 2 129 4 251 5 270 1 19 1 44 0 55 0
11 0 52 1 92 2 39 0 69 -3 68 -3 -2 -5 18 -5 46 1 27 4 49 9 49 4 0 7 9 7 21
0 11 11 35 25 53 14 18 22 36 18 39 -3 4 19 18 50 33 35 15 57 32 57 42 0 14
1 14 13 -1 11 -16 14 -16 49 3 30 16 46 18 80 12 50 -9 89 -9 106 2 12 7 56 4
125 -9 24 -5 37 -4 37 4 0 6 11 8 30 5 18 -4 36 -1 45 6 12 10 15 10 15 -3 0
-16 6 -16 48 -1 25 10 52 12 52 4 0 -4 60 -6 133 -5 86 1 135 -2 139 -9 5 -7
8 -4 8 7 0 17 11 23 22 11 11 -10 150 -18 237 -14 28 2 46 -2 52 -11 5 -8 9
-9 9 -3 0 7 17 12 38 12 20 0 50 6 66 12 16 6 31 8 34 5 3 -3 -1 -5 -9 -6 -8
0 -7 -3 5 -8 10 -4 46 -5 80 -3 34 2 77 3 96 2 19 -1 57 -1 84 -1 27 1 65 -3
84 -9 20 -5 40 -6 46 -1 17 13 88 12 104 -1 10 -9 15 -9 22 1 5 9 10 10 14 2
5 -8 13 -8 27 -1 11 6 23 9 28 6 4 -3 22 -1 40 4 17 5 31 5 31 2 0 -9 65 -6
81 3 8 5 10 4 5 -3 -5 -9 18 -11 84 -8 49 2 90 0 90 -3 0 -9 361 -6 387 3 19
6 22 4 16 -11 -6 -15 -4 -16 9 -5 8 7 23 9 33 6 10 -4 21 -1 26 7 6 10 11 11
17 3 4 -6 33 -10 65 -10 31 1 57 -2 57 -7 0 -4 5 -5 12 -1 6 4 28 10 49 14 29
5 36 4 32 -7 -3 -7 2 -13 11 -13 9 0 19 7 22 15 4 8 10 13 14 10 12 -7 105
-17 175 -18 33 0 63 -5 67 -11 5 -7 8 -6 8 2 0 14 55 15 75 1 17 -11 75 -19
75 -10 0 4 24 7 53 6 28 -1 57 1 62 4 17 9 35 10 41 0 8 -14 24 -11 24 6 0 8
5 15 10 15 6 0 10 -4 10 -9 0 -17 40 -23 57 -10 13 11 17 10 28 -4 9 -13 15
-15 20 -7 4 7 18 9 31 6 13 -4 24 -2 24 3 0 6 12 6 28 2 39 -10 93 -6 102 8 5
9 10 10 14 2 4 -6 27 -9 51 -8 24 1 42 0 40 -4 -2 -3 12 -6 31 -7 19 -1 39 -4
45 -8 5 -3 15 -1 22 4 20 15 89 22 104 10 7 -6 13 -6 13 -1 0 5 9 9 20 9 11 0
20 -4 20 -8 0 -4 12 -3 26 2 14 6 23 6 20 1 -3 -5 11 -9 32 -9 20 0 40 5 44
11 6 9 8 9 8 0 0 -9 17 -13 52 -13 32 0 58 -6 68 -15 14 -13 23 -13 71 -1 29
8 58 12 63 9 5 -4 6 -1 2 6 -5 8 2 11 23 9 17 -1 31 -5 31 -9 0 -11 41 -5 67
9 16 9 22 9 25 1 3 -10 95 -15 125 -7 5 1 23 -2 41 -6 21 -5 38 -4 44 2 7 7
19 7 33 2 12 -5 39 -5 60 0 20 5 49 5 63 0 59 -18 92 -20 92 -5 0 8 5 15 11
15 6 0 8 -7 5 -16 -5 -14 -4 -15 9 -4 10 9 33 11 68 7 29 -3 61 -1 70 4 11 7
17 6 17 0 0 -7 8 -7 25 -1 14 5 25 6 25 1 0 -5 24 -10 53 -10 28 0 71 -2 94
-4 23 -2 40 0 37 4 -3 5 7 4 21 -1 28 -11 49 -5 40 11 -9 13 9 11 22 -2 13
-13 142 -20 149 -8 2 4 17 4 33 -1 16 -4 31 -7 33 -5 7 7 88 12 88 5 0 -3 14
-5 30 -2 19 3 30 0 30 -7 0 -8 7 -7 22 3 13 10 27 12 37 7 13 -7 180 -7 217 0
23 4 55 -2 50 -9 -7 -12 124 -3 148 10 15 8 18 7 13 -4 -4 -12 3 -13 39 -8 24
4 46 4 49 2 7 -7 135 -6 142 1 3 3 16 1 30 -4 14 -5 29 -6 35 -3 15 10 268 11
268 2 0 -5 7 -8 15 -8 8 0 14 6 13 13 -2 6 5 11 14 9 9 -1 19 2 22 7 3 5 15 7
26 4 11 -3 17 -9 14 -14 -7 -11 10 -11 59 0 29 7 37 6 37 -5 0 -17 16 -19 26
-3 4 7 9 8 13 1 3 -6 18 -8 33 -5 15 3 25 9 22 14 -11 18 12 9 29 -12 14 -16
21 -18 32 -9 8 7 26 9 42 6 15 -4 42 -2 58 2 38 11 56 5 48 -15 -5 -12 -3 -14
8 -7 8 4 23 7 33 5 14 -2 17 1 12 14 -5 14 -2 16 11 10 22 -10 123 -15 123 -6
0 10 94 8 101 -2 4 -5 15 -4 27 2 13 7 29 8 44 2 30 -11 44 -11 40 1 -1 6 7 6
20 2 13 -4 31 -8 41 -8 9 0 17 -4 17 -9 0 -4 5 -5 11 -1 17 10 179 12 185 2 3
-5 12 -1 18 8 10 13 22 16 50 11 21 -3 36 -2 36 4 0 6 13 2 29 -7 23 -14 34
-15 59 -6 26 9 30 8 25 -4 -3 -8 0 -14 6 -14 6 0 11 5 11 11 0 6 9 8 20 4 12
-4 20 -2 20 5 0 11 88 9 108 -4 5 -3 13 0 15 6 4 9 8 9 14 3 17 -20 116 -25
150 -7 17 10 25 9 36 -3 12 -12 17 -12 33 0 11 8 29 11 43 8 13 -3 26 -1 31 7
5 9 9 9 14 1 4 -6 2 -11 -4 -11 -6 0 -8 -5 -5 -11 5 -7 15 -5 31 6 24 16 50
12 39 -6 -6 -8 17 -3 39 9 14 7 96 8 96 0 0 -9 42 -6 56 4 7 5 18 3 27 -7 18
-17 31 -20 21 -4 -4 8 0 9 15 4 14 -4 23 -2 27 9 4 11 11 13 22 7 10 -4 35 -9
57 -9 22 -1 41 -6 43 -12 7 -21 23 -9 17 13 -7 20 -6 21 9 6 13 -12 28 -14 61
-9 25 4 46 3 47 -1 5 -15 96 -17 122 -4 14 8 28 10 30 6 4 -6 51 -7 51 -1 0 0
21 2 48 3 26 2 47 -1 47 -5 0 -12 48 -10 55 2 4 6 12 7 18 3 19 -12 71 -12 80
1 6 8 10 8 14 -2 4 -10 8 -9 19 5 8 11 13 13 14 6 0 -8 13 -13 29 -13 16 0 42
-5 56 -10 23 -9 26 -8 21 5 -4 11 -2 14 7 8 6 -4 20 -6 30 -5 9 2 17 -2 17 -8
0 -8 6 -9 18 -5 25 11 123 14 116 4 -3 -5 -1 -9 5 -9 5 0 12 4 15 9 3 5 21 5
41 1 19 -4 37 -4 40 1 3 4 17 4 31 -1 37 -15 46 -12 39 10 -6 18 -5 19 22 5
19 -10 29 -11 34 -3 4 6 11 4 18 -8 10 -17 12 -18 24 -3 9 12 18 14 36 7 16
-5 28 -5 35 2 17 17 28 11 20 -12 -6 -21 -5 -22 11 -8 22 19 42 21 70 8 17 -7
32 -7 54 0 22 8 31 7 34 -1 3 -9 8 -9 19 1 12 9 18 10 23 2 5 -8 11 -7 23 2
11 10 16 10 19 1 4 -12 64 -7 94 8 11 6 21 4 28 -5 12 -14 91 -19 91 -5 0 5 5
9 11 9 5 0 7 -4 4 -10 -3 -5 -2 -10 3 -10 6 0 13 7 16 16 5 14 9 14 22 3 18
-15 104 -24 104 -12 0 13 64 9 78 -4 7 -7 18 -13 23 -13 13 0 11 17 -3 24 -7
3 -1 3 15 -1 15 -3 33 0 41 6 10 9 21 8 42 0 16 -7 54 -12 84 -11 30 0 60 -4
67 -10 10 -8 13 -6 13 6 0 19 16 22 23 4 4 -10 7 -10 18 0 18 17 58 15 65 -3
4 -8 10 -15 15 -15 4 0 5 8 2 17 -7 17 -5 16 22 -1 23 -15 27 -16 22 -3 -3 9
1 18 9 21 8 3 14 1 14 -3 0 -10 106 -5 123 6 6 3 7 1 3 -5 -5 -8 0 -12 13 -12
10 0 21 3 24 8 2 4 2 1 0 -7 -3 -13 13 -12 71 6 13 4 17 1 14 -9 -4 -10 4 -14
33 -14 22 -1 39 2 39 6 0 13 53 31 62 22 5 -5 28 -6 51 -1 26 4 47 3 55 -3 11
-10 16 -4 13 17 -1 6 4 3 11 -5 10 -12 24 -14 56 -10 33 5 42 3 38 -7 -3 -7
-1 -13 3 -13 5 0 11 6 14 13 3 9 7 9 19 -1 11 -9 18 -10 23 -2 8 13 45 13 45
0 0 -5 5 -10 11 -10 6 0 8 7 5 16 -4 9 -2 13 5 8 6 -3 30 -8 53 -10 22 -2 50
-5 61 -7 11 -1 23 2 28 8 4 6 11 5 18 -5 8 -11 12 -12 16 -2 2 6 9 12 14 12 6
0 8 -3 6 -7 -3 -5 8 -9 24 -10 16 -1 29 2 29 7 0 15 50 12 51 -2 0 -7 4 -4 9
7 5 11 9 15 9 8 1 -7 7 -10 14 -7 23 8 97 10 97 2 0 -4 7 -5 15 -2 8 4 12 10
9 15 -3 5 -1 9 5 9 5 0 13 -4 16 -10 3 -5 19 -8 36 -6 16 2 32 0 35 -5 2 -4
12 -5 21 -2 10 4 14 2 10 -4 -5 -8 4 -8 29 -3 20 5 47 5 59 0 17 -6 25 -5 29
5 4 10 13 12 35 5 17 -5 33 -5 36 0 7 11 55 19 55 9 0 -4 -4 -11 -10 -14 -5
-3 -10 -12 -10 -18 1 -7 9 -2 19 10 15 18 24 21 48 14 31 -9 156 -7 172 3 5 4
13 1 17 -5 5 -8 3 -9 -7 -4 -11 6 -12 5 -2 -5 11 -12 15 -11 26 5 9 12 16 14
21 7 4 -6 13 -9 21 -5 9 3 15 -1 15 -8 0 -7 10 -3 25 11 21 19 25 21 25 7 0
-10 8 -17 19 -17 11 0 22 -4 26 -9 3 -6 29 -7 58 -4 28 3 61 6 72 7 11 0 25 4
30 7 13 8 47 5 64 -6 9 -5 12 -4 8 2 -8 13 106 12 116 -1 4 -7 9 -3 13 11 6
20 8 20 39 7 22 -9 36 -10 40 -4 4 7 13 7 24 1 10 -6 27 -7 39 -4 14 3 22 1
22 -7 0 -15 48 -5 71 16 14 13 18 13 29 -1 17 -21 35 -19 54 8 14 17 16 18 11
3 -4 -13 -1 -17 10 -12 8 3 15 1 15 -5 0 -6 7 -9 15 -6 8 4 17 2 20 -4 4 -5
11 -7 16 -3 5 3 6 10 3 16 -4 7 -2 8 5 4 6 -4 9 -12 6 -17 -4 -5 8 -6 27 -2
18 3 34 9 36 13 2 4 24 2 49 -6 34 -10 50 -11 59 -3 8 6 21 8 30 5 9 -3 20 -3
26 0 15 10 98 14 98 5 0 -4 -6 -13 -12 -20 -11 -11 -9 -11 12 0 14 7 32 12 42
11 9 -2 19 2 23 9 6 8 10 7 16 -2 8 -12 11 -11 19 1 9 13 11 13 20 0 8 -13 10
-12 10 4 0 12 5 16 15 12 8 -3 22 -9 30 -12 10 -4 15 0 15 11 0 9 5 13 10 10
6 -4 7 -11 4 -17 -4 -7 6 -9 30 -6 21 2 36 0 36 -7 0 -6 3 -7 8 0 4 6 25 10
47 10 22 0 52 3 67 7 15 3 28 2 30 -3 2 -5 15 -10 31 -11 15 -1 27 -6 27 -11
0 -5 14 2 32 14 17 13 28 18 24 11 -5 -8 2 -11 23 -8 20 2 31 -1 31 -9 0 -14
47 -9 67 7 7 5 16 7 22 4 5 -3 11 0 14 6 4 10 7 11 18 1 18 -18 29 -16 29 5 1
16 2 16 15 -2 7 -10 18 -15 24 -12 5 4 14 -2 20 -11 6 -10 11 -13 11 -6 0 7 9
17 20 23 16 9 19 8 13 -6 -4 -12 -2 -15 8 -12 8 3 13 14 11 24 -2 18 -2 18 11
1 14 -16 15 -16 30 5 14 21 15 21 11 3 -4 -16 0 -21 15 -21 12 0 21 3 21 7 0
10 69 8 76 -2 16 -26 24 0 24 76 0 61 -4 85 -12 86 -53 6 -273 9 -383 5 -38
-2 -82 1 -97 5 -15 4 -30 4 -32 1 -3 -5 -1195 -6 -1331 -2 -5 0 -92 -1 -193
-3 -101 -2 -186 1 -188 5 -3 5 -9 6 -14 3 -4 -3 -84 -5 -176 -4 -204 0 -135 0
-529 -1 -181 0 -339 -1 -350 0 -11 0 -166 0 -345 0 -179 0 -329 0 -335 1 -5 0
-77 0 -160 -1 -82 -1 -154 -1 -160 0 -5 1 -12 1 -15 0 -14 -5 -2110 -5 -2137
1 -18 4 -35 4 -38 1 -5 -5 -85 -14 -110 -12 -5 1 -35 3 -65 5 -30 2 -70 6 -88
8 -18 2 -35 0 -38 -5 -3 -5 -10 -6 -15 -3 -5 4 -60 6 -122 5 -61 -1 -132 -1
-157 -2 -66 0 -269 -1 -310 0 -19 0 -84 0 -145 0 -60 0 -117 1 -125 1 -79 4
-322 1 -330 -4 -6 -4 -17 -1 -25 5 -8 7 -15 9 -15 4 0 -5 -82 -8 -183 -7 -196
3 -615 2 -872 -2 -88 -1 -170 2 -181 6 -12 4 -24 5 -28 2z"/>
<path d="M43940 34199 c-214 -5 -239 -7 -282 -28 -101 -47 -152 -115 -167
-227 -13 -85 -4 -778 10 -849 23 -118 103 -202 216 -225 37 -8 349 -12 1016
-13 809 -1 968 1 997 12 92 38 169 117 184 191 4 19 9 222 12 450 4 340 2 424
-10 467 -17 64 -43 106 -93 155 -70 68 -64 68 -896 68 -406 0 -742 1 -745 2
-4 2 -113 0 -242 -3z"/>
<path d="M38235 34192 c-88 -8 -190 -73 -227 -145 -29 -58 -35 -172 -31 -587
4 -406 7 -428 82 -500 32 -32 65 -52 106 -65 58 -19 95 -20 1040 -20 912 0
983 1 1026 18 53 20 98 64 131 127 l23 45 0 450 c0 359 -3 458 -14 490 -34 96
-110 167 -196 180 -39 6 -1880 13 -1940 7z m808 -482 c31 -24 46 -83 27 -105
-8 -10 -31 -15 -65 -15 -59 0 -86 -18 -60 -40 10 -8 30 -11 59 -7 32 5 47 2
56 -8 32 -39 -67 -69 -134 -41 -27 11 -42 26 -56 58 -11 24 -20 51 -20 61 0
30 37 93 62 104 39 19 102 15 131 -7z m245 8 c23 -23 13 -37 -30 -40 -52 -4
-59 -22 -16 -44 77 -39 98 -85 56 -123 -41 -39 -127 -38 -152 2 -15 23 -2 31
49 28 39 -2 45 1 45 18 0 13 -12 27 -30 36 -38 20 -70 54 -70 76 0 29 48 59
94 59 23 0 47 -5 54 -12z m242 -3 c17 -20 8 -28 -37 -32 -44 -3 -60 -17 -69
-60 -5 -26 -1 -37 19 -57 15 -14 37 -26 50 -26 25 0 47 -17 47 -36 0 -19 -55
-27 -93 -14 -95 31 -117 159 -39 220 30 24 104 27 122 5z"/>
<path d="M40975 34191 c-112 -19 -194 -88 -226 -191 -20 -63 -20 -81 -14 -480
7 -461 10 -487 70 -557 49 -58 103 -81 215 -92 125 -12 1883 -14 1934 -2 55
13 138 74 163 118 12 21 26 56 32 79 15 57 16 831 1 904 -23 106 -80 173 -182
212 -46 17 -93 18 -1001 17 -524 -1 -970 -5 -992 -8z"/>
<path d="M46505 34195 c-5 -1 -35 -10 -66 -19 -44 -14 -67 -28 -106 -69 -83
-88 -85 -99 -82 -556 3 -412 11 -505 49 -565 31 -51 93 -96 161 -117 58 -18
109 -19 1020 -19 927 0 961 1 1015 20 62 21 137 78 158 118 31 60 36 140 37
542 1 451 -1 474 -62 554 -31 41 -97 84 -154 100 -20 6 -1952 17 -1970 11z"/>
<path d="M49270 34189 c-104 -15 -185 -71 -227 -157 -28 -56 -28 -59 -31 -272
-2 -118 1 -323 5 -455 8 -228 10 -243 34 -295 33 -69 69 -106 139 -139 l55
-26 990 0 990 0 60 28 c79 37 120 78 146 146 20 53 22 77 25 471 5 502 -1 543
-88 629 -37 37 -60 48 -133 63 -56 11 -1890 18 -1965 7z"/>
<path d="M52041 34187 c-85 -9 -116 -23 -177 -79 -72 -67 -86 -118 -88 -333
-1 -99 1 -295 5 -436 5 -215 9 -265 25 -310 23 -66 101 -148 159 -168 32 -11
212 -15 943 -18 l902 -4 0 676 0 675 -847 2 c-467 2 -881 -1 -922 -5z"/>
<path d="M38185 32511 c-75 -19 -146 -79 -178 -151 -20 -44 -21 -66 -24 -895
-2 -561 0 -874 7 -920 13 -90 45 -151 98 -192 85 -65 51 -63 1056 -63 569 0
924 3 944 9 57 17 117 58 145 98 61 90 58 35 55 1004 -3 793 -5 889 -20 932
-26 76 -60 119 -119 152 l-54 30 -940 2 c-517 0 -953 -2 -970 -6z m1015 -510
c5 -11 10 -29 10 -40 0 -26 28 -41 78 -41 46 0 72 -22 55 -48 -7 -12 -29 -19
-69 -22 l-59 -5 -3 -37 c-4 -46 -23 -64 -51 -48 -14 7 -21 21 -21 39 0 38 -22
54 -77 57 -26 2 -53 9 -60 17 -31 31 19 65 77 52 36 -8 60 16 60 61 0 29 3 34
25 34 14 0 29 -8 35 -19z m134 -297 c20 -20 20 -40 0 -48 -9 -3 -80 -6 -159
-6 -125 0 -146 2 -166 19 -20 16 -21 21 -10 35 20 23 312 24 335 0z m-84 -399
c35 -18 60 -52 60 -82 0 -32 -39 -31 -70 2 -20 21 -32 25 -65 23 -32 -2 -41
-7 -43 -25 -3 -18 10 -28 79 -64 87 -46 119 -81 119 -134 0 -16 -9 -41 -20
-55 -22 -28 -25 -49 -9 -82 25 -57 -39 -118 -124 -118 -84 0 -168 60 -152 110
9 28 36 25 80 -10 41 -33 71 -38 100 -16 30 22 11 44 -68 80 -122 55 -159 127
-101 195 23 28 25 34 14 66 -14 44 -7 67 31 100 25 20 41 25 85 25 30 0 68 -7
84 -15z"/>
<path d="M40865 32506 c-70 -17 -108 -39 -147 -85 -71 -83 -68 -34 -65 -1026
3 -1006 -1 -945 83 -1029 85 -86 23 -81 1084 -81 l935 0 61 33 c66 36 112 89
134 155 16 52 16 1726 0 1820 -19 103 -62 160 -156 204 -37 17 -92 18 -959 20
-707 1 -932 -1 -970 -11z m993 -364 c9 -7 13 -49 13 -171 -1 -89 -3 -166 -6
-172 -11 -17 -44 -9 -56 13 -12 22 -7 307 6 328 7 12 25 13 43 2z m31 -850 c5
-10 11 -130 12 -266 2 -207 0 -249 -12 -257 -20 -13 -27 -11 -49 11 -19 19
-20 33 -20 229 0 221 -1 226 -49 233 -28 4 -47 29 -38 52 10 25 142 23 156 -2z"/>
<path d="M43502 32497 c-76 -27 -126 -72 -160 -147 l-26 -55 2 -515 c1 -283 3
-688 5 -900 l2 -385 32 -66 c23 -46 45 -75 72 -94 87 -60 43 -57 1040 -63 873
-4 916 -4 969 14 68 23 142 88 174 152 l23 47 0 890 c0 811 -2 895 -17 946
-26 82 -66 132 -135 165 l-58 28 -930 3 -930 3 -63 -23z m1114 -372 c116 -34
167 -168 99 -260 -12 -17 -22 -46 -23 -68 -2 -51 -6 -55 -69 -83 -70 -31 -126
-31 -191 2 -98 49 -150 145 -130 240 11 51 38 98 72 124 79 61 147 73 242 45z
m710 -21 c42 -25 55 -46 35 -59 -5 -3 -31 6 -57 20 -76 40 -142 33 -202 -23
-36 -34 -39 -44 -16 -66 12 -13 38 -16 120 -16 85 0 106 -3 111 -15 3 -9 2
-19 -2 -23 -3 -4 -59 -8 -123 -10 -140 -3 -146 -5 -132 -32 9 -17 23 -20 113
-22 94 -3 102 -4 102 -23 0 -18 -8 -20 -97 -23 -94 -3 -98 -4 -98 -25 0 -24
38 -66 77 -86 34 -17 88 -13 138 11 39 19 47 20 55 8 20 -32 -36 -73 -119 -86
-67 -11 -171 54 -201 125 -6 15 -24 35 -40 45 -34 20 -37 32 -13 58 16 18 16
21 -1 50 -20 32 -19 32 27 59 9 5 17 14 17 20 0 5 12 28 27 51 56 84 190 114
279 62z m-726 -822 c22 -12 43 -35 58 -64 35 -70 20 -117 -79 -251 -48 -64
-78 -114 -75 -123 4 -10 24 -14 77 -14 73 0 109 -15 109 -46 0 -23 -22 -28
-134 -31 -195 -5 -228 19 -154 114 184 240 188 246 188 290 0 48 -34 76 -84
70 -47 -7 -71 -34 -80 -89 -8 -47 -30 -58 -58 -30 -25 25 -19 73 15 122 45 66
144 90 217 52z"/>
<path d="M44465 32093 c-68 -18 -115 -88 -115 -173 0 -33 4 -60 10 -60 6 0 10
-6 10 -13 0 -7 20 -32 44 -56 43 -42 47 -44 118 -49 59 -3 76 -1 87 11 7 9 10
20 7 25 -8 14 -73 25 -132 23 -71 -3 -104 24 -104 83 0 86 75 152 160 141 90
-12 92 -15 63 -104 -15 -47 -15 -53 -1 -68 25 -24 62 -10 76 30 29 82 -5 172
-78 201 -39 15 -103 19 -145 9z"/>
<path d="M46178 32496 c-74 -27 -122 -63 -155 -118 -32 -52 -32 -55 -38 -218
-4 -91 -2 -505 3 -920 9 -749 9 -755 31 -806 27 -63 70 -106 136 -136 l50 -23
900 -3 c946 -3 999 -1 1067 41 49 30 105 100 120 150 10 33 13 242 13 937 l0
895 -26 55 c-30 63 -67 103 -124 134 l-40 21 -950 2 c-765 2 -957 0 -987 -11z
m1098 -405 c44 -20 74 -54 74 -83 0 -29 -30 -21 -64 17 -26 30 -38 36 -76 37
-74 2 -111 -35 -96 -96 11 -43 40 -69 87 -75 53 -7 68 -37 22 -46 -44 -10 -58
-20 -61 -46 -1 -13 -10 -41 -19 -63 -16 -37 -16 -39 2 -52 12 -9 46 -14 98
-14 85 0 120 -11 110 -35 -4 -13 -29 -15 -151 -13 -173 4 -185 10 -134 74 53
66 52 144 -2 144 -26 0 -51 24 -41 40 3 5 12 10 20 10 23 0 33 30 23 67 -5 19
-7 47 -3 62 6 28 47 74 75 84 32 12 97 6 136 -12z m519 -60 c-6 -45 -5 -51 19
-66 52 -35 83 1 95 108 1 4 8 7 16 7 13 0 15 -9 9 -47 -5 -43 -3 -51 20 -72
32 -30 33 -39 2 -51 -31 -12 -58 -52 -50 -74 3 -9 15 -21 25 -27 27 -14 24
-47 -3 -51 -23 -3 -38 -36 -53 -110 -6 -29 -29 -38 -38 -15 -3 8 -2 29 2 48
10 44 -6 79 -35 79 -34 0 -51 -24 -59 -80 -8 -56 -22 -72 -41 -45 -9 12 -10
24 -3 42 14 37 11 49 -16 79 -14 15 -25 29 -25 31 0 2 13 9 29 14 18 6 34 22
41 40 12 27 10 32 -15 59 -26 28 -27 50 -1 50 29 0 52 51 56 123 0 4 7 7 16 7
13 0 15 -8 9 -49z m-544 -784 c18 -12 39 -34 46 -47 18 -35 16 -107 -4 -140
-15 -27 -15 -30 0 -52 10 -13 24 -33 33 -45 9 -13 16 -45 17 -76 1 -46 -4 -61
-26 -91 -36 -47 -75 -66 -132 -66 -84 0 -151 47 -162 113 -4 29 -2 38 12 43
13 5 29 -6 61 -41 42 -45 47 -47 85 -42 50 7 66 20 80 67 15 48 -8 97 -49 105
-41 9 -57 20 -60 43 -2 13 4 22 17 27 45 14 71 45 71 86 0 74 -76 108 -119 53
-12 -15 -21 -33 -21 -40 0 -20 -34 -36 -48 -22 -33 33 17 131 71 141 56 11 95
6 128 -16z"/>
<path d="M48867 32499 c-58 -14 -111 -44 -147 -85 -68 -78 -65 -47 -66 -704
-1 -327 1 -741 5 -920 7 -313 8 -327 30 -370 43 -83 96 -122 189 -139 26 -5
457 -10 957 -12 846 -2 913 -1 959 15 67 24 107 58 147 125 l34 55 0 916 0
915 -24 49 c-35 70 -73 110 -133 137 l-53 24 -930 2 c-521 0 -947 -3 -968 -8z
m1037 -372 c51 -29 59 -50 18 -46 -16 2 -37 -3 -46 -10 -14 -12 -21 -12 -42 0
-35 18 -58 2 -62 -43 -4 -45 20 -71 59 -66 21 3 31 -1 39 -18 7 -12 34 -34 60
-48 57 -31 75 -67 66 -130 -6 -36 -15 -52 -49 -81 -23 -20 -49 -42 -57 -49
-30 -26 -39 -25 -99 4 -78 39 -84 65 -12 55 43 -6 51 -4 60 13 10 18 14 19 42
9 28 -11 33 -10 50 12 26 31 24 70 -5 106 -23 29 -24 29 -50 12 -26 -17 -26
-17 -36 7 -5 14 -27 36 -49 50 -49 31 -71 62 -71 99 0 34 35 84 75 104 16 9
35 22 43 29 17 18 19 18 66 -9z m46 -857 c12 -7 16 -38 18 -149 3 -133 5 -142
28 -163 30 -29 30 -39 -1 -66 -20 -18 -25 -31 -25 -72 0 -36 -4 -52 -15 -56
-25 -10 -45 16 -45 55 0 63 -14 72 -119 76 -125 6 -141 19 -98 84 13 20 38 59
55 86 17 28 36 55 42 62 5 7 10 15 10 18 0 8 52 87 74 113 20 23 51 28 76 12z"/>
<path d="M49858 31153 c-8 -10 -33 -53 -56 -95 -38 -72 -39 -77 -23 -92 22
-20 94 -21 111 -1 7 8 13 51 15 97 4 100 -12 131 -47 91z"/>
<path d="M51525 32496 c-100 -32 -161 -90 -190 -181 -16 -51 -16 -116 -10
-893 4 -460 10 -870 15 -910 14 -125 86 -211 196 -231 29 -6 446 -11 975 -12
904 -2 925 -2 969 18 68 30 110 71 141 138 l29 60 0 877 c0 615 -3 893 -11
930 -20 91 -73 154 -165 195 -36 17 -101 18 -974 20 -741 2 -943 0 -975 -11z
m937 -403 c25 -22 41 -85 29 -115 -13 -35 -45 -59 -88 -65 -33 -4 -42 -1 -66
25 -71 74 -19 193 77 177 16 -3 38 -13 48 -22z m188 8 c0 -8 -28 -76 -51 -126
-5 -11 -38 -87 -73 -170 -50 -115 -69 -150 -83 -150 -32 0 -28 14 87 260 15
33 42 90 58 128 19 41 37 67 46 67 9 0 16 -4 16 -9z m100 -275 c44 -48 25
-155 -32 -175 -46 -16 -63 -14 -97 15 -77 64 -35 184 64 184 31 0 47 -6 65
-24z m-78 -554 c8 -8 8 -15 -2 -27 -9 -11 -31 -15 -78 -15 -75 0 -91 -13 -92
-70 0 -47 15 -60 66 -60 54 0 96 -34 119 -95 41 -106 -27 -228 -133 -242 -75
-10 -182 49 -166 90 8 22 26 21 71 -3 56 -30 99 -26 134 11 16 17 30 41 31 53
3 54 -4 82 -29 105 -24 20 -34 23 -81 18 -72 -8 -82 -2 -81 42 1 73 26 184 45
198 22 16 179 12 196 -5z"/>
<path d="M52356 32069 c-29 -34 -30 -38 -17 -72 34 -88 121 -69 121 26 0 28
-6 44 -22 58 -32 26 -52 23 -82 -12z"/>
<path d="M38174 29922 c-28 -10 -63 -26 -78 -35 -37 -24 -84 -92 -98 -141 -9
-30 -12 -274 -12 -926 1 -970 -1 -936 60 -1014 38 -48 80 -74 140 -85 27 -5
752 -12 1619 -16 1733 -8 1624 -11 1719 54 50 35 79 77 96 139 15 59 15 1746
0 1819 -24 111 -112 197 -214 207 -28 3 -755 8 -1616 11 -1495 5 -1567 4
-1616 -13z m1221 -1422 l0 -315 -25 0 -25 0 -3 318 -2 318 27 -3 28 -3 0 -315z
m-251 130 c165 -107 166 -108 166 -131 0 -20 -36 -47 -203 -150 -88 -55 -114
-66 -129 -58 -34 18 -18 40 77 101 52 34 95 64 95 68 0 4 -140 9 -311 12 -263
5 -314 8 -327 21 -13 14 -13 18 -1 33 12 15 41 16 331 11 179 -3 318 -2 318 3
0 5 -42 37 -92 70 -94 63 -114 82 -103 100 13 21 46 7 179 -80z"/>
<path d="M42207 29919 c-90 -21 -151 -71 -189 -154 l-23 -50 0 -905 0 -905 23
-50 c28 -61 53 -89 112 -123 l45 -27 605 -5 c1005 -9 1299 -6 1344 10 53 20
130 91 158 148 l23 47 -3 883 c-1 571 -6 899 -13 930 -18 81 -79 156 -154 188
-37 16 -113 18 -965 20 -517 1 -942 -2 -963 -7z m1103 -807 c113 -70 159 -243
103 -389 l-16 -42 32 -37 c59 -66 16 -113 -54 -60 l-33 26 -57 -26 c-130 -60
-272 2 -339 145 -17 36 -21 65 -21 136 1 99 18 152 70 213 71 84 210 99 315
34z"/>
<path d="M43140 29068 c-78 -21 -124 -101 -124 -215 1 -56 6 -83 25 -120 41
-80 135 -113 209 -73 25 14 25 16 -5 52 -29 34 -31 50 -9 69 13 11 21 10 50
-6 19 -10 37 -15 42 -11 4 4 9 42 10 85 3 63 0 87 -18 129 -33 77 -102 111
-180 90z"/>
<path d="M44854 29909 c-63 -18 -127 -73 -159 -134 l-30 -59 -2 -880 c-2 -616
0 -896 8 -931 26 -115 94 -185 201 -204 45 -8 323 -11 983 -9 872 3 922 4 963
22 54 23 128 105 144 159 10 32 13 214 13 782 0 783 -6 1038 -24 1096 -15 47
-74 115 -125 142 l-41 22 -950 2 c-560 1 -963 -2 -981 -8z m749 -781 c13 -21
67 -317 67 -368 0 -55 28 -2 66 126 75 248 76 249 106 252 38 5 48 -16 107
-222 49 -173 57 -194 65 -185 2 2 19 91 39 198 21 111 42 198 49 203 20 12 35
10 52 -8 20 -19 20 -36 1 -127 -8 -40 -28 -148 -45 -242 -32 -172 -45 -205
-82 -205 -54 0 -61 12 -122 239 -25 90 -47 166 -50 169 -11 10 -18 -7 -57
-149 -57 -208 -67 -235 -92 -246 -32 -14 -73 3 -85 35 -24 64 -96 497 -88 528
8 32 50 33 69 2z"/>
<path d="M47565 29910 c-27 -4 -62 -13 -77 -18 -45 -18 -104 -79 -129 -135
l-24 -52 -1 -875 c-2 -933 -1 -949 47 -1026 28 -46 92 -95 138 -105 62 -14
1888 -15 1937 -1 92 26 165 105 184 199 17 79 7 1769 -10 1828 -19 69 -75 134
-138 163 l-57 27 -910 1 c-500 1 -932 -2 -960 -6z m1096 -800 c11 -6 19 -21
19 -35 0 -30 -14 -34 -125 -37 l-80 -3 -3 -71 c-2 -50 1 -74 11 -82 7 -6 48
-12 91 -14 62 -2 81 -7 90 -20 8 -13 8 -23 0 -35 -9 -14 -28 -19 -90 -21 -43
-2 -84 -8 -91 -14 -16 -13 -18 -134 -3 -143 6 -4 47 -8 91 -10 67 -2 85 -6
102 -24 17 -17 19 -25 11 -39 -9 -14 -30 -17 -125 -20 -63 -1 -124 0 -135 2
-40 10 -45 47 -42 310 3 206 5 248 18 256 20 13 236 13 261 0z"/>
<path d="M50231 29908 c-67 -10 -120 -38 -161 -84 -69 -80 -65 -11 -64 -1020
l2 -910 22 -51 c25 -59 79 -115 135 -140 37 -17 100 -18 988 -21 l948 -3 60
27 c37 17 74 43 95 68 68 79 66 47 62 1033 l-4 888 -22 57 c-26 64 -72 110
-141 141 -45 20 -66 20 -957 21 -501 1 -934 -2 -963 -6z m1095 -816 c44 -22
84 -86 84 -131 0 -79 -47 -141 -121 -161 -22 -6 -39 -15 -37 -20 2 -4 40 -47
86 -94 80 -84 91 -106 73 -135 -18 -28 -58 0 -151 103 -52 57 -101 105 -107
105 -10 1 -13 -25 -13 -97 0 -101 -7 -122 -42 -122 -37 0 -42 35 -42 303 -1
218 1 259 14 268 9 6 58 8 115 6 78 -2 109 -8 141 -25z"/>
<path d="M51141 29032 c-12 -22 -2 -155 13 -164 31 -21 128 -2 152 30 14 18
18 79 8 107 -17 42 -153 64 -173 27z"/>
<path d="M52896 29905 c-68 -14 -141 -58 -170 -103 -52 -79 -51 -62 -48 -1015
3 -857 4 -891 23 -940 30 -78 90 -139 158 -157 27 -7 714 -15 929 -10 l22 0 0
685 0 685 -38 0 c-41 0 -62 14 -62 42 0 22 29 38 69 38 l31 0 -2 392 -3 392
-429 0 c-255 1 -449 -3 -480 -9z"/>
<path d="M38210 27346 c-73 -15 -145 -58 -173 -104 -55 -88 -52 -36 -49 -1015
l2 -908 25 -49 c52 -103 132 -148 276 -155 52 -3 916 -7 1920 -9 1504 -4 1835
-3 1877 8 111 30 178 91 207 189 14 49 16 150 13 938 l-3 884 -28 60 c-37 79
-69 110 -136 136 -56 21 -63 21 -1631 25 -866 2 -1726 6 -1910 8 -222 2 -354
-1 -390 -8z m323 -324 c58 -60 21 -152 -61 -152 -83 0 -125 97 -69 158 31 33
95 31 130 -6z m430 -757 c81 -75 147 -142 147 -149 0 -26 -29 -39 -75 -33 -74
11 -75 9 -75 -114 l0 -110 -152 3 -153 3 -5 110 -5 110 -62 3 c-62 3 -89 18
-77 43 9 21 284 269 297 269 7 0 79 -61 160 -135z m-11 -483 c10 -10 14 -155
4 -170 -10 -17 -277 -17 -294 0 -16 16 -16 175 -1 180 20 7 284 -3 291 -10z"/>
<path d="M38717 26243 c-48 -42 -87 -80 -87 -85 0 -4 13 -8 28 -8 46 0 52 -15
52 -127 l0 -103 95 0 95 0 0 105 c0 115 5 124 67 125 26 1 22 7 -61 85 -49 47
-91 85 -95 85 -3 0 -45 -34 -94 -77z"/>
<path d="M42885 27333 c-62 -14 -94 -30 -136 -70 -89 -83 -84 -21 -84 -1053
l0 -905 27 -51 c15 -29 46 -68 70 -88 80 -69 40 -67 1084 -64 l939 3 43 23
c48 26 106 81 126 121 8 15 18 51 24 81 13 75 5 1683 -9 1769 -17 107 -67 178
-154 218 -38 17 -90 18 -975 19 -514 1 -944 0 -955 -3z m1004 -790 c28 -24
224 -528 216 -554 -5 -15 -14 -19 -37 -17 -32 3 -36 7 -65 73 l-18 40 -125 0
-124 0 -21 -55 c-20 -52 -23 -55 -55 -55 -32 0 -35 3 -38 30 -3 34 169 508
196 538 8 9 23 17 32 17 10 0 27 -8 39 -17z"/>
<path d="M43812 26308 c-33 -91 -40 -123 -31 -129 17 -10 158 -9 165 2 6 10
-62 210 -80 234 -9 12 -20 -10 -54 -107z"/>
<path d="M45675 27330 c-171 -6 -215 -19 -266 -78 -17 -19 -40 -56 -52 -81
-21 -45 -21 -59 -24 -666 -1 -341 1 -755 5 -920 7 -278 10 -303 29 -341 29
-54 89 -107 149 -130 47 -18 91 -19 984 -19 881 0 938 1 979 18 70 29 121 75
150 137 l26 55 -3 880 c-2 553 -7 900 -13 932 -21 106 -96 181 -204 203 -54
11 -1500 19 -1760 10z m937 -803 c48 -20 69 -60 45 -84 -15 -15 -19 -15 -58 3
-82 36 -159 14 -159 -47 0 -39 26 -59 114 -92 41 -15 88 -40 104 -55 83 -78
56 -222 -52 -279 -44 -23 -152 -20 -209 5 -53 23 -72 62 -44 89 14 15 20 14
66 -5 27 -12 68 -22 91 -22 74 0 124 77 90 140 -5 10 -47 32 -92 50 -124 47
-158 82 -158 164 0 124 129 189 262 133z"/>
<path d="M48185 27309 c-76 -26 -128 -76 -157 -149 l-22 -55 2 -890 c2 -585 6
-903 13 -930 22 -84 99 -163 178 -185 50 -13 1885 -14 1929 -1 57 17 117 58
145 98 50 73 59 109 60 238 2 516 -6 1528 -14 1605 -16 165 -81 252 -209 279
-35 8 -342 11 -958 11 -887 -1 -908 -1 -967 -21z m1113 -815 c105 -52 147
-138 140 -288 -5 -106 -24 -152 -87 -209 -51 -46 -93 -57 -213 -57 -146 0
-138 -18 -138 298 0 187 3 261 12 270 8 8 50 12 123 12 99 0 117 -3 163 -26z"/>
<path d="M49092 26234 l3 -209 42 -3 c90 -7 162 31 194 102 28 61 26 179 -4
230 -36 64 -67 80 -158 85 l-79 3 2 -208z"/>
<path d="M50895 27315 c-94 -22 -148 -62 -187 -140 -31 -59 -34 -172 -28
-1075 5 -736 6 -808 22 -843 31 -67 79 -118 138 -146 l55 -26 945 0 945 0 68
33 c79 39 123 95 144 181 19 83 8 1753 -13 1826 -26 94 -75 148 -165 181 -40
15 -133 17 -959 19 -678 2 -928 -1 -965 -10z m1163 -807 c6 -6 12 -18 12 -27
0 -34 -22 -41 -122 -41 l-98 0 0 -79 0 -78 84 -5 c86 -4 116 -17 116 -47 0
-33 -22 -41 -112 -41 l-88 0 0 -107 c0 -85 -3 -110 -17 -125 -20 -22 -31 -23
-55 -1 -17 15 -18 37 -18 275 0 321 -13 297 161 290 68 -2 130 -9 137 -14z"/>
<path d="M53640 27320 c-115 -8 -169 -29 -215 -83 -73 -85 -70 -37 -69 -1040
l2 -898 33 -67 c37 -74 93 -124 157 -142 20 -5 88 -10 150 -10 l112 0 0 1119
0 1119 -31 6 c-17 3 -34 5 -38 4 -3 -1 -49 -4 -101 -8z"/>
<path d="M38275 24759 c-145 -8 -215 -51 -267 -164 l-23 -50 2 -890 c1 -489 5
-906 9 -925 11 -66 77 -155 137 -186 89 -46 72 -46 1292 -42 633 1 1195 6
1250 10 55 3 117 14 137 22 48 20 110 82 140 137 l23 44 0 905 c0 838 -1 909
-18 955 -36 104 -104 157 -224 175 -73 11 -2280 19 -2458 9z m708 -1346 c112
-100 142 -133 142 -153 0 -24 -3 -25 -67 -28 l-68 -3 0 -102 c0 -67 -4 -107
-12 -115 -8 -8 -56 -12 -150 -12 -164 0 -158 -5 -158 134 l0 95 -67 3 c-107 5
-102 19 67 177 77 72 148 131 156 131 8 0 79 -57 157 -127z"/>
<path d="M38738 23386 c-49 -45 -88 -85 -88 -89 0 -4 16 -7 35 -7 20 0 38 -6
40 -12 2 -7 6 -58 7 -113 l3 -100 95 0 95 0 5 110 5 110 38 3 c20 2 37 7 37
11 0 8 -154 151 -175 163 -5 3 -49 -31 -97 -76z"/>
<path d="M41501 24733 c-63 -22 -124 -86 -150 -157 l-22 -60 3 -895 3 -896 24
-53 c30 -67 98 -127 164 -147 43 -13 183 -15 972 -15 1036 0 989 -3 1072 73
52 48 60 60 80 135 13 50 14 165 9 927 -3 508 -10 884 -15 903 -29 98 -103
172 -192 191 -34 8 -352 11 -977 10 -808 0 -933 -3 -971 -16z m1034 -668 c33
-14 63 -25 68 -25 4 0 17 11 29 25 24 28 50 32 68 10 31 -37 -30 -105 -95
-105 -16 0 -58 12 -93 27 l-63 26 -27 -26 c-32 -31 -57 -34 -70 -9 -21 39 36
102 92 102 17 0 58 -12 91 -25z m6 -621 c79 -32 108 -57 93 -82 -16 -25 -50
-26 -107 -2 -104 43 -116 54 -97 91 14 25 34 24 111 -7z"/>
<path d="M44215 24741 c-117 -30 -186 -109 -204 -233 -6 -37 -8 -421 -5 -920
4 -833 5 -859 24 -912 20 -53 78 -118 130 -146 39 -21 220 -25 1105 -25 665 0
858 3 887 13 20 7 62 35 92 63 94 86 89 29 87 958 -2 866 -6 993 -36 1056 -28
57 -86 109 -147 130 -49 17 -114 18 -978 21 -509 2 -938 -1 -955 -5z m1176
-802 c11 -11 18 -27 15 -36 -3 -8 -69 -109 -146 -223 -77 -115 -140 -212 -140
-215 0 -3 60 -5 134 -5 145 0 171 -8 164 -54 -3 -20 -8 -21 -197 -24 -203 -3
-221 1 -221 41 0 11 63 114 140 228 77 114 140 212 140 218 0 7 -42 11 -123
11 -127 0 -147 6 -147 42 0 31 32 37 198 38 151 0 163 -1 183 -21z"/>
<path d="M46856 24721 c-73 -26 -131 -80 -156 -147 -20 -55 -21 -68 -20 -858
1 -959 2 -1001 35 -1065 26 -53 82 -106 131 -127 18 -8 70 -16 116 -19 147
-10 1710 -12 1783 -3 131 17 205 71 246 178 21 55 21 56 16 941 -6 873 -7 887
-28 943 -25 67 -74 120 -138 150 -46 21 -51 21 -991 23 -877 2 -949 0 -994
-16z m911 -793 c11 -13 44 -58 73 -100 30 -43 57 -78 60 -78 4 0 37 45 74 101
60 90 70 100 94 97 22 -2 28 -9 30 -33 2 -24 -12 -50 -68 -127 -38 -53 -70
-103 -70 -110 0 -8 41 -70 90 -138 98 -134 108 -163 55 -168 -28 -2 -36 6
-110 113 -44 63 -86 114 -92 112 -7 -1 -48 -51 -91 -112 -69 -97 -83 -110
-108 -110 -24 0 -30 5 -32 27 -3 22 16 55 82 147 47 66 86 125 86 133 0 7 -27
51 -61 98 -82 116 -93 138 -78 156 17 20 43 17 66 -8z"/>
<path d="M49565 24731 c-93 -25 -145 -67 -184 -150 l-26 -56 0 -860 c-1 -473
3 -889 8 -925 10 -76 47 -150 95 -190 71 -59 65 -58 1032 -65 797 -6 892 -5
955 9 116 28 174 72 221 171 18 39 19 72 16 890 -2 468 -7 885 -12 928 -15
122 -63 188 -170 232 -43 18 -93 19 -975 21 -511 2 -943 -1 -960 -5z m1113
-813 c42 -18 72 -49 72 -75 0 -37 -28 -39 -83 -8 -90 50 -188 19 -231 -74 -31
-68 -29 -180 4 -241 51 -91 134 -113 238 -65 30 14 56 25 58 25 2 0 11 -11 20
-25 16 -25 16 -27 -7 -51 -58 -62 -212 -70 -297 -15 -90 58 -127 144 -120 279
5 100 24 145 86 206 64 61 175 80 260 44z"/>
<path d="M52253 24730 c-92 -19 -166 -78 -204 -165 l-22 -50 2 -868 c1 -500 6
-891 12 -920 20 -110 86 -191 181 -223 42 -14 139 -16 818 -17 l770 -2 0 1123
0 1122 -47 0 c-590 6 -1478 6 -1510 0z m836 -793 c6 -8 42 -101 79 -207 38
-107 73 -195 78 -197 5 -2 40 87 77 197 38 109 75 204 82 210 18 15 45 9 58
-11 7 -12 -7 -65 -58 -210 -122 -347 -123 -349 -155 -349 -33 0 -38 9 -105
195 -111 307 -125 350 -119 367 6 21 46 24 63 5z"/>
<path d="M38193 22161 c-48 -12 -119 -58 -147 -94 -62 -81 -59 -18 -57 -1197
1 -695 6 -1089 12 -1114 20 -75 70 -135 144 -174 l50 -27 965 0 965 0 41 22
c59 32 117 101 137 166 16 51 18 129 17 1019 -2 1044 -6 1178 -37 1248 -27 60
-75 105 -142 132 l-56 23 -930 2 c-511 1 -944 -2 -962 -6z m455 -1798 c3 -17
-3 -26 -22 -33 -33 -12 -34 -43 -1 -58 14 -6 25 -19 25 -27 0 -9 -11 -20 -25
-25 -24 -9 -25 -12 -25 -109 0 -75 -4 -101 -15 -111 -12 -10 -18 -10 -30 0
-12 10 -15 36 -15 115 0 94 -2 103 -20 108 -11 3 -20 12 -20 21 0 8 9 20 20
26 14 8 20 21 20 45 0 47 31 77 73 73 24 -2 33 -8 35 -25z m102 -94 c70 8 92
4 118 -22 25 -26 27 -34 30 -130 4 -109 -5 -135 -42 -121 -13 5 -16 22 -16 93
0 92 -14 131 -49 131 -46 0 -59 -33 -60 -156 -1 -48 -5 -63 -17 -68 -37 -14
-45 12 -43 133 1 124 10 157 37 145 9 -4 28 -6 42 -5z"/>
<path d="M40845 22142 c-78 -27 -111 -56 -147 -130 l-33 -67 -1 -300 c0 -165
2 -658 5 -1096 l6 -795 30 -59 c33 -64 98 -117 163 -134 22 -6 418 -11 967
-13 1065 -3 997 -9 1086 84 87 91 82 11 77 1226 -5 1064 -5 1067 -27 1123 -26
67 -78 124 -140 153 -46 21 -53 21 -991 23 -878 2 -949 1 -995 -15z m830
-1947 c0 -178 -1 -190 -19 -193 -10 -2 -23 2 -27 10 -10 14 -11 318 -2 356 4
17 11 22 27 20 21 -3 21 -7 21 -193z m-301 139 c3 -9 6 -23 6 -33 0 -9 10 -25
22 -35 l22 -19 -22 -18 c-20 -15 -22 -27 -22 -111 0 -100 -7 -122 -36 -116
-17 3 -19 15 -22 110 -2 96 -5 107 -22 113 -26 8 -26 42 0 50 14 4 20 15 20
34 0 15 3 31 7 34 12 13 41 7 47 -9z m-140 -67 c24 -18 17 -53 -9 -49 -53 8
-79 4 -92 -14 -30 -41 -29 -97 3 -129 12 -12 30 -15 63 -13 41 3 46 1 49 -19
3 -17 -3 -26 -23 -33 -67 -26 -127 0 -157 67 -43 97 11 203 104 203 24 0 52
-6 62 -13z m262 3 c8 -8 19 -7 37 1 32 15 57 6 57 -21 0 -13 -11 -24 -35 -34
-39 -17 -44 -29 -47 -136 -3 -73 -4 -75 -28 -75 l-25 0 -3 124 c-1 69 0 131 2
138 6 16 28 17 42 3z"/>
<path d="M43558 22149 c-57 -9 -105 -37 -149 -86 -69 -79 -64 4 -65 -1163 0
-580 4 -1081 8 -1114 11 -76 36 -122 91 -173 87 -80 41 -77 1072 -76 808 1
916 3 964 17 66 19 107 46 144 94 58 75 58 67 56 892 -1 415 -4 902 -8 1081
l-6 325 -30 59 c-38 74 -95 120 -167 134 -64 12 -1840 22 -1910 10z m357 -589
l0 -104 -45 -2 c-89 -4 -130 33 -130 116 0 32 6 48 29 70 26 27 34 29 87 26
l59 -3 0 -103z m6 -1302 c8 -7 32 -51 54 -98 22 -47 45 -88 50 -92 6 -4 77 -8
158 -8 122 0 149 -3 153 -15 4 -8 1 -22 -6 -30 -10 -12 -42 -15 -169 -15 -86
0 -161 4 -168 8 -7 4 -33 52 -58 105 l-45 97 -65 0 c-68 0 -85 11 -71 45 7 19
145 21 167 3z m408 -2 c6 -7 9 -21 5 -30 -5 -14 -27 -16 -160 -16 -139 0 -154
2 -163 18 -19 36 5 42 160 42 112 0 149 -3 158 -14z"/>
<path d="M46210 22137 c-56 -16 -115 -59 -144 -107 -47 -76 -48 -78 -44 -1210
3 -1063 3 -1065 24 -1111 33 -71 88 -125 152 -151 l57 -23 1280 0 1280 0 46
21 c66 31 113 77 140 136 l24 53 1 455 c0 250 -3 743 -8 1095 -9 637 -10 640
-32 690 -29 62 -77 112 -136 139 -45 21 -49 21 -1320 23 -988 1 -1285 -1
-1320 -10z m2193 -1698 c19 -20 27 -40 27 -65 l0 -35 58 3 c52 3 57 5 54 25
-4 28 22 79 47 93 26 13 87 13 113 -1 11 -6 26 -26 34 -45 12 -29 12 -39 0
-68 -18 -42 -29 -49 -91 -56 l-50 -5 -3 -52 -3 -53 39 0 c82 0 136 -68 107
-136 -38 -92 -180 -63 -187 39 l-3 42 -57 3 -58 3 0 -41 c0 -80 -76 -123 -150
-85 -34 18 -50 43 -50 80 0 56 34 85 110 95 l45 5 -1 40 c-1 22 -2 46 -3 53
-1 8 -17 12 -47 12 -107 0 -143 128 -50 174 41 21 84 12 119 -25z m-1085 -252
c2 -164 0 -188 -13 -194 -9 -3 -21 -1 -27 5 -7 7 -17 7 -33 0 -35 -16 -88 -1
-120 32 -23 24 -30 41 -33 88 -7 104 45 161 135 147 l44 -6 -2 49 c-3 55 5 75
29 70 15 -3 17 -25 20 -191z m-713 67 c25 -26 12 -39 -37 -39 -62 0 -88 -24
-88 -82 0 -61 26 -85 88 -81 41 3 47 1 47 -17 0 -28 -48 -49 -93 -40 -80 15
-122 111 -87 201 10 27 27 50 43 59 37 20 107 19 127 -1z m228 -1 c16 -16 20
-16 46 0 45 26 88 22 122 -13 30 -29 30 -29 27 -137 -3 -100 -4 -108 -23 -108
-18 0 -20 8 -25 97 -4 75 -9 101 -23 115 -16 16 -20 16 -45 3 -26 -15 -27 -20
-32 -115 -5 -92 -7 -100 -25 -100 -18 0 -20 7 -22 60 -5 108 -13 144 -35 156
-15 8 -27 8 -44 0 -23 -10 -24 -15 -24 -105 0 -71 -4 -97 -15 -106 -12 -10
-18 -10 -30 0 -12 10 -15 38 -15 135 0 67 2 124 4 126 3 2 35 5 73 6 51 1 72
-2 86 -14z"/>
<path d="M47180 20207 c-36 -18 -49 -76 -27 -122 14 -30 22 -35 51 -35 43 0
66 29 66 83 0 27 -7 45 -25 62 -28 29 -31 29 -65 12z"/>
<path d="M49593 22139 c-55 -7 -123 -41 -160 -81 -12 -13 -32 -46 -45 -73
l-23 -50 3 -1075 c4 -1220 0 -1154 81 -1239 25 -27 66 -59 91 -72 l45 -24
2113 -3 2112 -2 0 1310 0 1310 -1922 1 c-1058 0 -1995 1 -2083 2 -88 1 -183
-1 -212 -4z"/>
<path d="M4260 19912 c0 -15 5 -33 11 -39 9 -9 8 -16 -4 -27 -11 -11 -15 -39
-16 -108 -1 -114 3 -132 29 -118 25 13 30 13 24 -4 -3 -8 -17 -17 -31 -21 -25
-6 -25 -6 -21 -99 2 -59 9 -100 17 -110 12 -14 11 -19 -3 -34 -21 -24 -22 -50
-1 -32 15 13 19 8 15 -23 -1 -10 4 -25 11 -33 9 -12 6 -16 -20 -25 -23 -8 -31
-17 -31 -34 0 -39 11 -55 36 -55 30 0 54 -43 38 -68 -18 -28 -43 -39 -54 -22
-5 8 -6 18 -4 22 3 4 0 8 -7 8 -8 0 -10 -15 -7 -49 3 -27 1 -56 -4 -66 -6 -10
-6 -21 0 -28 5 -7 14 -27 20 -45 9 -27 9 -34 -4 -39 -10 -4 -14 -21 -14 -62 0
-31 -1 -67 -2 -81 -2 -58 13 -701 18 -760 3 -36 6 -101 6 -145 -1 -107 5 -135
28 -135 11 0 30 -5 44 -12 21 -9 24 -16 19 -37 -7 -33 -22 -51 -39 -51 -20 0
-17 -16 8 -40 18 -16 19 -20 6 -20 -9 0 -28 -4 -43 -10 l-25 -10 30 -41 c16
-23 30 -50 30 -61 0 -10 6 -17 13 -16 8 2 11 -9 9 -34 -4 -44 13 -51 28 -12
11 28 30 24 30 -6 0 -10 7 -23 16 -28 12 -6 15 -18 12 -36 -7 -33 5 -33 26 -1
9 14 21 25 26 25 17 0 11 -28 -7 -39 -24 -13 -10 -25 21 -17 19 5 25 12 23 29
-1 16 4 23 19 25 15 2 24 13 28 34 5 26 8 29 21 18 23 -19 18 -35 -20 -77
l-35 -38 30 -3 c30 -3 39 -15 20 -27 -16 -10 -11 -22 11 -28 18 -5 20 -11 14
-36 -6 -27 -4 -31 14 -31 18 0 19 -3 10 -27 -8 -21 -7 -28 5 -35 12 -7 13 -13
4 -33 -14 -32 -42 -22 -33 12 4 18 2 24 -7 21 -20 -7 -22 -40 -4 -50 12 -7 14
-14 6 -28 -14 -26 -13 -30 9 -30 14 0 18 5 14 19 -3 10 0 22 5 25 17 10 42 -5
42 -24 0 -11 5 -22 10 -25 17 -10 11 -32 -15 -63 -28 -34 -32 -57 -10 -66 11
-4 13 -11 5 -30 -7 -20 -6 -26 9 -31 13 -4 17 -12 14 -29 -3 -13 0 -27 6 -30
6 -4 11 -17 11 -29 0 -12 7 -30 14 -40 8 -10 11 -27 8 -39 -3 -14 -1 -19 6
-14 7 4 14 -4 17 -21 4 -15 10 -37 15 -48 27 -66 42 -96 47 -91 3 3 2 13 -2
23 -12 26 -32 122 -27 127 10 11 32 -9 32 -29 0 -13 7 -25 15 -29 8 -3 15 -17
15 -31 0 -16 6 -25 15 -25 11 0 14 7 9 25 -5 21 -3 25 15 25 12 0 21 -6 21
-13 0 -7 7 -22 15 -34 15 -22 17 -22 51 -6 31 15 36 15 44 3 15 -24 11 -50 -7
-57 -10 -4 -26 -14 -36 -24 -17 -16 -17 -17 11 -22 52 -10 80 -87 32 -87 -24
0 -50 -10 -50 -20 0 -4 11 -11 24 -14 46 -11 46 -74 1 -94 -27 -12 -34 -32
-11 -32 8 0 16 -13 18 -31 4 -24 -1 -37 -22 -58 l-27 -26 26 -20 c14 -11 30
-19 34 -17 5 1 6 -2 3 -7 -3 -5 5 -11 19 -13 28 -6 32 0 10 16 -15 12 -10 56
7 56 5 0 4 -8 -2 -19 -14 -27 -12 -40 3 -20 7 9 17 18 22 20 11 4 11 20 0 62
-5 18 -3 27 5 27 8 0 10 12 5 39 -4 26 -2 41 6 47 9 5 10 2 6 -9 -3 -10 -2
-17 3 -17 17 0 11 26 -10 45 -20 18 -27 36 -12 34 22 -4 42 2 37 10 -3 6 -14
8 -25 6 -14 -3 -18 0 -13 8 4 7 8 32 9 57 1 25 5 56 9 69 6 17 5 22 -3 17 -6
-3 -13 -2 -17 4 -3 5 -2 10 2 10 5 0 8 28 8 63 -1 34 1 66 4 72 3 5 6 84 8
175 2 91 6 212 8 270 3 58 5 146 4 195 0 50 0 99 1 110 2 25 10 258 11 305 0
19 1 69 2 110 0 41 0 98 0 125 -1 28 -1 75 0 105 2 63 0 507 -2 560 -1 19 1
49 5 66 10 51 -17 52 -88 2 -32 -23 -63 46 -34 74 17 17 96 23 96 7 0 -6 5 -7
10 -4 6 4 10 30 10 58 -1 29 2 68 5 88 4 20 3 44 -2 54 -6 10 -7 36 -1 66 6
32 5 56 -2 68 -7 13 -7 22 0 26 13 8 13 78 -1 92 -8 8 -8 13 0 17 13 8 15 116
2 116 -5 0 -11 -6 -14 -13 -7 -18 -95 -60 -113 -53 -12 5 -13 10 -3 27 9 18 8
24 -5 31 -22 13 -20 31 3 25 12 -3 27 3 37 14 20 22 12 38 -11 19 -15 -13 -16
-11 -31 38 -2 6 1 12 5 12 5 0 7 8 5 18 -4 14 5 19 47 29 42 10 54 10 61 0 13
-21 9 -34 -17 -51 -30 -20 -32 -36 -6 -36 12 0 21 -9 25 -25 4 -14 11 -25 16
-25 14 0 20 36 19 105 -1 33 1 78 4 100 19 127 19 133 7 140 -7 4 -21 -1 -32
-13 -20 -19 -20 -22 -5 -60 l16 -39 -32 -30 c-41 -38 -72 -49 -81 -28 -4 12
-10 14 -25 5 -11 -5 -31 -10 -45 -10 -31 0 -35 -20 -6 -27 23 -6 23 -4 10 -37
-8 -23 -7 -26 11 -26 31 0 17 -24 -15 -28 -18 -2 -26 0 -21 7 3 6 2 11 -3 11
-5 0 -14 -11 -20 -25 -9 -20 -9 -25 3 -25 20 0 29 -19 15 -35 -9 -11 -17 -12
-32 -4 -11 6 -23 7 -26 3 -4 -4 -1 -9 6 -11 6 -3 12 -18 12 -35 0 -18 7 -36
18 -44 14 -10 15 -15 4 -26 -10 -10 -17 -10 -32 0 -21 13 -36 0 -23 -20 4 -7
6 -23 4 -35 -3 -27 17 -31 26 -5 15 43 53 51 53 11 0 -14 -7 -19 -25 -19 -20
0 -25 -5 -25 -25 0 -30 -24 -43 -45 -25 -11 9 -12 16 -5 25 7 8 3 15 -15 23
-14 6 -25 20 -25 30 0 20 -37 55 -50 47 -17 -11 -42 8 -36 27 3 14 -1 22 -15
25 -11 3 -31 27 -45 54 -13 27 -28 49 -33 49 -5 0 -7 9 -4 19 4 15 -2 21 -26
26 -32 7 -39 19 -20 30 6 5 3 13 -10 22 -12 8 -21 25 -21 39 0 15 -6 24 -15
24 -8 0 -15 7 -15 15 0 8 0 17 0 20 0 3 -9 14 -21 26 -11 11 -18 27 -15 35 3
9 1 12 -4 9 -6 -3 -10 3 -10 13 0 11 -6 25 -14 31 -7 6 -17 30 -20 54 -4 23
-13 51 -20 62 -7 11 -16 31 -19 45 -3 14 -11 45 -17 70 -6 24 -13 65 -16 89
-5 49 -6 52 -46 69 -27 11 -28 10 -28 -16z"/>
<path d="M50375 18068 c-168 -10 -261 -46 -347 -135 -48 -50 -74 -99 -98 -186
-20 -69 -21 -99 -20 -751 0 -374 3 -682 5 -685 3 -2 5 265 5 595 1 329 3 624
6 654 23 253 99 347 319 393 47 9 444 12 1813 10 l1752 -1 0 54 0 54 -1432 0
c-788 0 -1536 1 -1663 3 -126 1 -279 -1 -340 -5z"/>
<path d="M15255 14975 c6 -2 615 -6 1355 -8 740 -3 1353 -8 1363 -12 9 -4 17
-10 17 -14 0 -3 -1891 -5 -4202 -3 -2312 2 -4770 2 -5463 2 -693 -1 -1384 -2
-1535 -1 -1238 4 -2434 1 -2477 -7 -30 -5 -58 -5 -67 0 -19 11 -59 1 -51 -13
4 -5 2 -9 -4 -9 -5 0 -17 -3 -27 -7 -12 -4 -15 -3 -10 5 10 17 -20 15 -36 -1
-7 -8 -20 -12 -30 -10 -36 10 -221 -75 -354 -163 -94 -62 -247 -209 -302 -292
-56 -83 -106 -221 -97 -269 8 -44 44 -80 105 -102 26 -10 50 -27 59 -42 13
-23 12 -34 -12 -110 -34 -107 -57 -237 -64 -363 -5 -74 -3 -97 5 -92 8 5 12
-3 12 -24 0 -17 -4 -29 -9 -25 -5 3 -12 2 -14 -2 -7 -11 -17 -446 -17 -688 0
-245 1 -220 -4 -280 -7 -83 -16 -730 -20 -1460 -2 -379 -1 -658 3 -620 l7 70
2 -88 c1 -50 -2 -86 -7 -83 -5 3 -11 -5 -15 -17 -3 -13 -6 -255 -6 -538 0
-283 -2 -561 -5 -619 -3 -58 -7 -320 -9 -584 -2 -389 0 -479 11 -483 7 -3 13
-19 12 -37 -1 -29 -1 -30 -8 -6 -7 25 -7 25 -13 3 -3 -13 -4 -68 -1 -123 l6
-100 35 6 c39 8 52 -4 52 -48 0 -30 -14 -37 -24 -12 -8 22 -26 7 -26 -22 0
-18 5 -25 18 -23 33 3 42 -1 42 -21 0 -12 -9 -24 -22 -29 -19 -7 -22 -14 -20
-67 2 -43 0 -55 -8 -44 -5 8 -10 36 -10 63 0 36 -4 47 -16 47 -10 0 -14 -6
-10 -17 3 -10 15 -61 26 -113 20 -92 39 -136 41 -94 0 18 1 18 11 -2 8 -17 4
-27 -21 -54 -16 -18 -27 -38 -24 -43 4 -6 -5 -8 -24 -4 -38 8 -90 -23 -99 -59
-11 -45 3 -137 32 -199 74 -161 267 -354 479 -478 155 -90 368 -156 573 -177
151 -15 167 -21 140 -48 -9 -9 -9 -12 3 -12 8 0 20 -14 27 -30 8 -17 18 -28
23 -24 5 3 9 -7 9 -23 0 -22 2 -25 10 -13 8 12 10 11 10 -6 0 -12 7 -24 15
-28 16 -6 39 -53 36 -73 -1 -7 3 -13 9 -13 6 0 9 -4 6 -9 -3 -5 1 -11 9 -15 8
-3 12 -12 9 -20 -3 -8 2 -25 11 -38 l17 -23 -7 24 c-5 16 -4 21 4 17 6 -4 11
-13 11 -19 1 -7 11 -25 24 -41 14 -16 22 -35 20 -41 -3 -7 6 -15 20 -19 13 -3
28 -15 31 -26 3 -11 12 -20 20 -20 14 0 31 -36 26 -58 -1 -7 4 -12 11 -11 27
3 37 -2 32 -16 -4 -10 0 -15 11 -15 9 0 13 -4 10 -10 -3 -6 5 -10 18 -10 14 0
27 -6 30 -12 6 -17 103 -65 142 -72 109 -18 201 -39 217 -47 11 -6 39 -9 63
-8 25 2 47 0 51 -4 4 -3 16 -2 27 4 10 6 17 7 14 2 -4 -5 7 -10 23 -10 18 0
27 4 23 11 -4 6 1 5 10 -2 9 -8 24 -11 34 -8 10 3 24 2 31 -3 7 -4 37 -3 65 4
55 12 91 10 82 -6 -4 -5 -1 -9 4 -9 6 0 11 5 11 10 0 12 67 13 74 1 4 -5 22
-5 43 0 23 5 53 4 76 -2 28 -7 42 -7 52 1 8 7 21 8 32 3 19 -9 104 -9 119 -1
5 3 25 4 44 2 103 -10 140 -9 135 5 -4 10 1 10 19 -3 26 -17 51 -22 43 -8 -3
4 18 6 46 4 104 -5 195 -5 205 2 6 3 12 1 14 -5 3 -9 10 -9 27 1 13 6 21 8 18
3 -3 -5 36 -9 91 -10 54 0 100 4 103 10 4 5 12 6 18 2 18 -10 152 -14 145 -4
-3 5 2 9 10 9 8 0 18 -5 21 -10 4 -6 11 -7 17 -4 5 4 44 6 86 5 43 -1 135 -3
205 -5 70 -2 130 1 133 6 10 15 23 8 17 -9 -6 -16 -5 -16 10 -4 10 8 30 11 49
9 17 -3 47 -2 65 2 19 5 30 4 27 -1 -3 -5 9 -9 26 -9 18 0 29 4 25 10 -4 6 2
7 17 2 25 -9 655 -8 664 0 7 8 44 -2 44 -12 0 -9 51 0 67 12 7 6 21 7 30 3 26
-11 115 -14 141 -4 17 7 22 5 22 -9 1 -15 2 -15 13 -2 7 8 26 16 42 17 22 2
26 0 15 -7 -10 -7 43 -8 153 -5 107 3 166 1 162 -5 -3 -6 -1 -10 4 -10 6 0 11
7 11 16 0 13 6 15 28 9 15 -3 28 -10 30 -15 2 -4 21 -3 43 3 29 7 43 7 48 -1
8 -14 51 -4 51 12 0 7 3 7 8 -1 9 -14 50 -17 136 -10 33 3 55 2 48 -1 -6 -4
16 -7 48 -7 32 0 54 2 49 6 -6 3 39 5 100 3 60 -1 115 -5 122 -10 8 -5 9 -3 4
6 -5 9 -2 11 11 6 18 -5 52 -6 129 -4 17 0 45 -2 63 -5 19 -4 32 -2 32 4 0 11
76 10 95 0 14 -8 84 -7 79 0 -2 4 7 9 20 11 16 3 23 1 19 -7 -3 -9 12 -11 59
-8 120 8 233 9 256 1 13 -5 21 -4 18 1 -4 5 20 7 56 5 76 -6 158 -6 298 0 131
6 104 6 251 2 69 -1 131 -6 139 -11 8 -5 11 -4 6 3 -4 7 57 9 208 6 118 -2
218 -4 223 -5 25 -4 53 2 48 11 -4 6 2 7 17 1 27 -10 134 -8 161 4 11 4 17 3
17 -5 0 -12 17 -11 88 4 12 3 20 2 18 -3 -3 -4 84 -6 192 -4 108 1 197 3 197
4 0 0 10 2 23 3 12 2 22 0 22 -3 0 -4 18 -6 39 -6 22 0 35 3 28 7 -6 3 15 5
47 3 32 -2 60 -5 62 -8 2 -2 24 -1 48 3 25 4 51 3 60 -2 8 -5 17 -4 21 2 3 5
11 10 16 10 6 0 8 -3 6 -7 -3 -5 6 -9 19 -9 13 -1 24 2 24 7 0 5 14 9 30 9 17
0 30 -5 30 -11 0 -11 16 -9 54 7 13 5 17 4 13 -3 -5 -8 5 -10 30 -8 41 4 99 4
320 4 78 -1 147 2 153 6 6 3 9 3 8 -2 -3 -9 5 -13 28 -13 8 0 13 3 11 8 -3 4
24 7 59 7 35 0 64 -3 64 -7 0 -4 26 -4 58 -1 116 11 270 5 291 -11 11 -8 13
-8 8 0 -4 8 11 11 51 9 31 -1 66 1 77 5 11 4 30 4 43 -1 12 -5 33 -4 46 1 15
5 37 5 57 0 19 -6 38 -6 48 0 10 5 43 5 77 1 32 -5 64 -5 69 -1 6 4 26 6 45 4
48 -6 49 -6 98 -1 23 2 42 0 42 -5 0 -5 10 -6 22 -2 18 5 139 7 273 3 11 0 57
1 102 2 46 1 85 0 89 -3 3 -4 22 -4 41 -1 28 5 34 3 28 -6 -6 -10 -3 -11 15
-1 21 12 137 16 148 6 3 -3 11 -1 18 5 8 7 25 8 41 4 16 -4 80 -6 143 -6 145
2 131 2 228 -2 45 -2 84 -1 87 2 2 4 30 5 62 4 134 -8 211 -8 206 0 -2 4 5 7
16 7 11 0 22 -4 25 -8 8 -13 99 -12 115 1 12 9 13 9 7 0 -5 -9 0 -13 13 -13
12 0 21 5 21 11 0 5 5 7 10 4 17 -11 180 -12 180 -2 0 5 7 4 15 -3 8 -6 23 -9
36 -5 16 5 19 4 14 -5 -6 -9 -4 -11 5 -5 18 11 80 24 80 16 0 -4 19 -7 43 -7
23 0 62 -1 87 -2 25 -1 144 -2 265 -2 121 0 225 0 230 0 133 -1 294 5 307 11
9 5 19 5 22 1 3 -5 35 -8 71 -7 36 1 68 -2 71 -7 3 -4 13 -4 22 1 9 5 60 7
112 5 86 -4 118 -4 200 -3 14 1 66 -1 115 -3 50 -3 95 -1 101 3 6 5 27 4 47
-2 21 -5 42 -7 48 -4 5 4 47 6 92 5 114 -3 117 -3 117 -13 0 -5 11 -2 24 6 16
11 33 13 57 8 38 -8 122 -7 137 3 6 3 22 2 37 -4 17 -7 24 -7 20 0 -3 6 -2 10
4 10 5 0 12 -4 16 -9 3 -6 17 -6 35 -1 16 5 32 5 35 1 2 -5 26 -7 52 -5 63 5
63 5 98 4 17 0 51 1 77 3 26 2 45 0 42 -5 -7 -11 10 -10 21 1 6 5 66 12 135
15 69 3 152 10 185 16 80 15 97 18 118 19 10 1 16 5 13 9 -3 5 8 6 25 4 18 -3
37 2 47 11 9 8 29 14 45 12 19 -2 32 3 42 18 8 11 13 23 11 26 -2 3 14 7 35 8
21 1 46 9 55 17 8 9 20 16 25 16 6 0 7 10 3 23 -3 12 -3 19 1 15 10 -10 37 11
29 23 -7 12 9 11 24 -1 6 -6 10 -7 7 -4 -2 4 0 16 6 26 8 15 14 17 22 9 16
-16 32 -14 18 3 -9 10 -8 16 3 25 11 10 16 9 24 -5 8 -15 10 -15 15 0 4 9 2
16 -3 16 -23 0 10 45 41 56 23 9 28 13 14 13 -11 1 -27 6 -35 12 -11 8 -8 9
14 4 25 -5 28 -4 23 14 -3 12 -1 21 5 21 6 0 7 7 4 16 -4 11 -2 15 7 11 39
-15 75 55 40 80 -15 12 -15 13 4 13 12 0 25 5 28 10 4 6 10 8 15 5 5 -3 12 6
16 20 3 14 10 25 16 25 5 0 7 4 4 9 -4 5 4 22 17 38 25 30 43 68 27 58 -5 -3
-8 4 -7 15 1 11 7 20 14 20 8 0 19 11 25 25 6 14 15 25 21 25 5 0 6 12 3 26
-5 18 -2 32 9 44 9 9 17 27 20 39 6 32 14 41 30 34 8 -3 15 -1 15 5 0 6 -6 12
-12 15 -8 3 4 21 31 48 25 24 46 52 46 62 2 19 24 39 36 32 3 -3 7 7 7 22 0
15 5 29 11 31 6 2 11 9 11 15 0 7 15 31 34 54 18 23 39 56 46 73 7 16 16 30
21 30 5 0 9 4 9 9 0 5 17 47 39 93 68 146 80 175 87 202 3 14 9 26 13 26 4 0
7 8 7 18 1 9 15 73 33 142 45 177 48 267 51 1275 1 484 3 993 5 1132 1 138 4
1045 6 2015 3 1607 2 1772 -14 1865 -9 56 -23 119 -32 139 -8 20 -15 46 -16
58 0 20 -1 20 -8 1 -8 -18 -10 -16 -27 18 -18 37 -44 50 -44 22 0 -8 -2 -15
-6 -15 -3 0 -36 25 -75 56 -68 56 -69 57 -65 97 4 33 1 43 -18 58 -13 10 -44
59 -70 109 -140 272 -335 464 -612 603 -100 50 -209 87 -335 113 -73 15 -170
18 -744 24 -734 6 -3846 11 -3830 5z m3813 -23 c2 -1 0 -6 -3 -12 -8 -13
-1024 -14 -1044 -1 -7 5 -11 13 -8 17 4 7 1045 3 1055 -4z m570 -13 c28 -6 52
-12 52 -14 0 -2 -130 -4 -289 -4 -159 0 -296 -3 -305 -7 -19 -7 -20 0 -5 28
11 20 16 20 252 14 133 -4 266 -11 295 -17z m-859 -130 c416 -1 767 -5 781
-10 14 -5 -666 -7 -1575 -4 -880 3 -1712 5 -1848 5 -179 0 -246 3 -241 11 5 8
297 9 1066 5 583 -3 1401 -6 1817 -7z m-9384 -170 c13 -14 -190 -18 -685 -15
-568 4 -533 3 -527 14 6 9 1203 10 1212 1z m760 1 c8 -13 -81 -16 -350 -14
-364 3 -357 3 -351 13 7 11 694 12 701 1z m660 -5 c0 -10 -604 -16 -632 -7 -7
2 -11 8 -8 12 8 12 640 7 640 -5z m2973 7 c7 -1 11 -6 7 -11 -6 -10 -637 -14
-670 -4 -18 5 -18 7 -3 12 15 5 631 8 666 3z m2120 -1 c74 -1 122 -5 122 -11
0 -7 -227 -10 -660 -10 -420 0 -660 4 -660 10 0 15 233 17 1198 11z m2000 -11
c169 0 232 -3 232 -12 0 -8 -140 -10 -562 -5 -310 4 -648 7 -751 7 -140 0
-186 3 -181 12 5 8 136 10 518 5 281 -4 616 -7 744 -7z m2870 -758 c17 -27 38
-69 47 -94 18 -55 34 -288 23 -339 -8 -37 -10 -182 -5 -417 1 -74 -1 -136 -6
-139 -4 -2 -3 -11 1 -20 5 -8 6 -31 2 -52 -3 -20 -7 -308 -8 -641 -2 -333 -5
-1116 -7 -1740 -7 -1766 -18 -2503 -41 -2725 -13 -131 -43 -288 -58 -302 -16
-16 -16 12 -2 89 45 244 43 230 51 383 5 90 3 132 -8 167 -14 43 -13 47 4 51
21 6 24 28 10 55 -5 10 -6 37 -1 62 9 54 22 2268 23 4050 1 1185 0 1295 -17
1415 -10 72 -24 148 -32 170 -13 37 -18 75 -11 75 2 0 18 -22 35 -48z m-8188
-7292 c0 -12 -961 -12 -1050 0 -30 4 194 8 498 9 370 1 552 -2 552 -9z m1834
0 c16 0 26 -3 23 -6 -4 -4 -95 -9 -204 -11 -236 -6 -808 8 -743 18 34 5 599 5
924 -1z"/>
<path d="M35985 6560 c-3 -5 3 -10 14 -10 15 0 21 -6 21 -21 0 -11 4 -18 9
-15 5 3 11 -5 13 -19 3 -13 2 -22 -3 -20 -4 3 -5 -5 -1 -17 3 -13 11 -27 19
-31 7 -4 13 -14 13 -22 0 -13 21 -42 66 -90 11 -12 18 -27 17 -32 -2 -6 5 -13
17 -16 11 -3 20 -9 19 -14 -4 -21 2 -33 16 -33 9 0 12 -6 9 -15 -4 -8 -1 -16
5 -16 6 -1 15 -2 21 -3 5 0 15 -7 22 -15 10 -11 10 -14 1 -18 -7 -3 -13 -10
-13 -16 0 -5 3 -8 6 -4 11 11 33 -17 22 -30 -6 -8 -3 -10 11 -6 23 6 54 -14
45 -28 -3 -5 2 -9 10 -9 16 0 20 -10 16 -43 -1 -15 3 -17 19 -12 15 4 21 2 19
-6 -3 -12 1 -14 35 -18 8 -1 7 -4 -3 -11 -10 -7 -11 -12 -4 -17 6 -5 14 -17
18 -28 7 -19 8 -19 20 -2 12 15 15 15 26 2 10 -12 10 -15 -4 -15 -9 0 -16 -8
-15 -17 0 -11 3 -13 6 -5 7 17 23 15 23 -3 0 -8 7 -15 15 -15 8 0 22 -11 31
-25 9 -14 24 -25 34 -25 10 0 20 -9 23 -20 3 -11 1 -20 -4 -20 -5 0 -9 5 -9
12 0 6 -3 9 -6 6 -7 -8 17 -46 34 -53 7 -2 10 0 7 5 -15 24 17 7 37 -20 12
-16 26 -30 31 -30 5 0 23 -15 39 -32 17 -18 36 -33 42 -33 28 -2 65 -18 60
-26 -5 -8 9 -13 29 -10 4 0 7 -6 7 -14 0 -8 6 -15 14 -15 8 0 21 -8 28 -18 14
-21 58 -36 58 -20 0 5 7 2 16 -6 8 -9 27 -19 42 -22 15 -3 40 -10 56 -15 15
-5 32 -6 38 -3 5 3 15 0 23 -6 8 -6 38 -14 67 -16 29 -2 67 -7 83 -9 86 -16
541 -41 635 -35 66 3 262 0 270 -5 5 -3 10 -1 10 5 0 6 5 8 10 5 13 -8 165 -9
177 -2 5 3 14 3 20 -1 10 -6 397 -7 636 -1 53 1 100 0 103 -4 3 -3 19 -1 35 3
16 5 31 5 33 1 3 -4 38 -6 78 -5 40 1 89 2 108 2 19 0 55 0 80 0 25 0 74 0
110 0 99 0 653 2 670 2 161 3 609 -5 622 -11 9 -5 19 -6 22 -1 2 4 262 6 578
5 315 -2 582 -3 593 -2 33 1 86 1 160 0 39 -1 107 0 152 2 45 3 81 2 79 -2 -3
-5 88 -6 104 -1 21 7 498 4 508 -3 7 -6 12 -5 12 1 0 12 212 8 231 -3 5 -4 9
-2 9 2 0 5 99 9 219 9 120 -1 217 -4 215 -7 -2 -3 27 -4 64 -1 37 2 76 4 87 3
11 0 45 0 75 1 30 0 62 0 70 0 16 0 164 -1 190 -1 74 0 118 0 135 0 44 -1 400
-2 554 -1 90 0 167 -3 172 -6 5 -3 9 -1 9 4 0 5 17 8 38 6 20 -1 37 -3 37 -4
0 -8 42 -7 52 1 7 6 17 7 24 4 15 -10 259 -9 289 0 12 4 20 3 17 -1 -3 -5 108
-8 246 -7 351 2 349 2 480 0 64 -1 117 2 117 6 0 5 5 5 12 1 7 -5 213 -9 458
-10 245 -1 450 -2 455 -4 6 -1 12 -1 15 0 18 8 447 5 458 -3 9 -7 17 -6 24 1
15 15 61 15 75 1 8 -8 13 -8 17 0 10 15 43 14 48 -1 4 -10 11 -10 29 -2 29 12
587 13 608 0 7 -5 16 -5 20 1 6 9 121 12 121 3 0 -8 64 -6 77 3 6 4 14 3 18
-3 4 -6 11 -8 16 -5 16 10 49 14 49 6 0 -4 21 -5 48 -1 26 4 79 5 117 3 39 -2
93 -3 120 -2 144 4 217 3 221 -3 3 -4 15 -2 28 3 16 8 30 8 42 1 10 -5 29 -6
45 -2 17 5 31 4 38 -3 8 -8 14 -8 19 -2 9 12 112 15 112 3 0 -5 9 -4 20 2 15
8 20 8 20 -1 0 -8 4 -9 13 0 9 7 24 8 45 2 17 -5 33 -7 36 -4 4 4 102 8 116 4
21 -6 121 -8 124 -3 5 8 318 8 332 0 12 -7 117 -4 129 3 6 4 17 5 25 4 66 -10
180 -13 180 -5 0 7 6 7 18 2 15 -9 131 -7 175 2 9 2 17 1 17 -2 0 -4 11 -7 25
-7 14 0 25 4 25 8 0 5 4 6 9 2 8 -4 111 -6 381 -5 25 0 106 -2 180 -4 74 -1
145 1 156 5 13 5 32 2 48 -6 15 -8 24 -10 21 -6 -8 13 121 17 174 5 26 -5 32
-4 26 5 -6 10 -3 11 11 3 11 -5 33 -8 49 -6 26 2 209 4 255 3 8 -1 49 2 90 5
205 15 259 19 300 21 25 2 46 4 48 5 1 1 19 3 40 4 22 0 46 7 55 15 11 9 17
10 17 2 0 -6 9 -11 21 -11 13 0 18 4 13 11 -5 8 1 10 20 7 14 -3 29 -2 32 3 2
4 12 5 21 2 11 -4 14 -2 9 5 -4 8 8 10 41 8 35 -2 55 2 72 16 13 10 32 18 42
18 11 0 29 11 41 25 26 30 36 31 55 8 13 -16 14 -16 9 -1 -6 20 20 32 28 12 4
-11 12 -10 42 8 27 16 39 19 42 10 2 -7 8 -10 12 -7 5 3 7 12 4 19 -3 8 3 16
15 19 13 3 18 1 14 -8 -3 -10 6 -8 32 5 25 13 49 17 77 14 23 -3 44 -1 48 5 3
6 22 12 42 13 20 2 34 6 32 9 -2 3 24 4 56 2 33 -2 60 0 60 5 0 5 10 8 23 8
l22 -1 3 340 2 341 -8292 -4 c-5962 -3 -8349 -1 -8493 7 -311 17 -487 44 -690
107 -103 32 -247 85 -262 97 -7 5 -16 6 -21 3 -5 -3 -18 1 -28 9 -23 17 -31
18 -39 5z"/>
</g>
</svg>
